<?xml version="1.0" encoding="utf-8"?>
<!-- Generator: Adobe Illustrator 19.2.1, SVG Export Plug-In . SVG Version: 6.00 Build 0)  -->
<svg version="1.1" id="Capa_1" xmlns="http://www.w3.org/2000/svg" xmlns:xlink="http://www.w3.org/1999/xlink" x="0px" y="0px"
	 viewBox="0 0 612 792" style="enable-background:new 0 0 612 792;" xml:space="preserve">
<!-- <style type="text/css">
	.st0{fill:#FEFEFE;}
	.st1{fill:#6E6F72;}
	.st2{fill:#B5D44F;}
	.st3{fill:#D25C9C;}
	.st4{fill:#ADAEAE;}
	.st5{fill:#AEAFAF;}
	.st6{fill:#AEAEAF;}
	.st7{fill:#AFAFAF;}
	.st8{fill:#737373;}
	.st9{fill:#727272;}
	.st10{fill:#747474;}
	.st11{fill:#707070;}
	.st12{fill:#757575;}
	.st13{fill:#878787;}
	.st14{fill:#F8F8F8;}
	.st15{fill:#F6F6F6;}
	.st16{fill:#F7F7F8;}
	.st17{fill:#F7F7F7;}
	.st18{fill:#F6F7F7;}
	.st19{fill:#F5F5F6;}
	.st20{fill:#FDFDFD;}
	.st21{fill:#FBFBFB;}
	.st22{fill:#727376;}
	.st23{fill:#747578;}
	.st24{fill:#707174;}
</style> -->
<g>
	<path class="st0" d="M6,152c201.1,0,401.9,0,602.9,0c0,163.3,0,326.7,0,490C407.9,642,207,642,6,642C6,478.7,6,315.4,6,152z
		 M199.2,437.4c1.9-0.5,3.9-0.9,5.8-1.4c-1.9,7.1-3.7,14.2-5.6,21.2c-0.1,1.7-0.3,3.5-0.4,5.4c4.2-0.7,7.4-1.8,7.4-6.5
		c1.9-6.3,3.9-12.7,5.8-19c3.3-0.5,6.6-1,10.8-1.7c0.3-1.5,0.9-4.3,1.5-7.1c1-4.5-1.9-4.3-4.6-3.4c-2.3,0.7-4.3,2.2-5.7,3
		c-1.4-1.1-2.5-2.6-3.6-2.7c-3.2-0.4-11.2,5.1-12.4,8.1c0,1.2,0,2.5-0.1,3.7C198.5,437.1,198.9,437.2,199.2,437.4z M160,364.1
		c0.3-0.3,0.5-0.6,0.8-0.9c0.1-1,0.1-2,0.2-3.1c7.3-4.4,14.7-8.7,22-13.1c-0.8,4.4-1.7,8.7-2.5,13.1c-1.8,9.4-3.5,18.7-5.3,28.1
		c0.4,2.9,0.8,5.9,1.4,10.1c8.6-5.5,15.9-10.4,23.3-14.8c4.1-2.5,5.7-5.7,4.8-10.3c-0.1-0.5-0.2-1-0.3-1.5c-0.3,0.3-0.6,0.5-0.8,0.8
		l-0.2,0.3c-2.8,1.3-5.6,2.7-8.5,3.9c-2.3,1-4.7,1.8-7.1,2.7c0-2.5-0.1-5-0.1-7.4c0.9-3.3,1.9-6.6,2.7-10c1.9-7.6,3.6-15.3,5.5-22.9
		l-0.1,0.1c0.3-2,0.5-3.9,0.8-5.9c-1.5-0.8-3.2-2.5-4.3-2.2c-3.1,0.9-6.1,2.5-9,4.1c-5.6,3.2-11.1,6.7-16.7,10.1
		c-0.3-0.3-0.7-0.6-1-0.9c0.6-2.5,1.5-4.9,1.9-7.5c0.2-1.7,0.1-4.1-0.9-5c-0.9-0.8-3.5-0.7-4.9,0c-5.8,2.8-11.5,5.9-17.1,9.2
		c-1.2,0.7-1.6,2.8-2.4,4.2c-0.1,1.6-0.2,3.3-0.3,4.9c4.4-1.1,8.2-2,12-2.9c-0.5,2.4-1,4.8-1.6,7.2c-3.1,12.2-6.2,24.5-9.3,36.7
		c0,1.6,0,3.1,0,5c5.8-2.4,12.7-2.7,12.3-11.1C156.9,378,158.5,371,160,364.1C160.1,364,160,364.1,160,364.1z M282,414
		c-0.8-2-1.5-4-2.7-7.1c-2.2,2.8-3.6,4.5-5.1,6.3c0.5,3,1.1,6,1.7,9.6C280.4,420.2,283.1,418.3,282,414z M238.1,447L238.1,447
		c2.9-4.4,5.9-8.8,8.7-13.3c0.8-1.3,0.8-3,1.1-4.6c-0.6-0.8-1.1-2.4-1.7-2.4c-3.8-0.1-7.5,0.1-11.3,0.5c-1.5,0.2-3.6,0.9-4.1,2
		c-1.5,3.5-2.3,7.3-3.3,11.1c0.2,1.4,0.4,2.8,0.8,5.4c2.5-4.5,2.7-9.8,8.7-8.4c-3.8,5.9-7.5,11.9-5.2,19.4c-1.3,6.4,4,7.5,8.5,5.6
		c10.4-4.2,20.6-19.4,20.7-31.2c-0.3-2.5-0.3-5-1.2-7.3c-0.2-0.5-4.2-0.6-4.7,0.2c-1.1,1.8-1.7,4.3-1.3,6.4
		c1.3,7.2-3.7,18.5-10,21.9c-2.9,1.5-5.2,1.5-5.9-2.4C237.9,448.9,238,447.9,238.1,447z M494.1,453.1c0.9,3.2,1.8,6.4,2.9,10.3
		c4.2-3,7.7-4.7,6.9-9.3c-1.2-2.4-2.3-4.8-3.9-8.1C497.5,449,495.8,451,494.1,453.1z M313.2,388.4c3.2-11.8,6.4-23.6,9.6-35.4
		c2.8-2.1,5.3-5.4,8.4-6c3.8-0.7,8.1,0.8,12.8,1.4c1-3.9,2.3-9,3.5-14.1c-0.8-1.1-1.8-3.1-2.5-3.1c-3.6,0.4-7.4,0.9-10.7,2.2
		c-2.8,1.1-5.1,3.4-8,5.4c-0.1-1.3-0.2-1.9-0.2-2.5c-0.3-5.9-1.1-6.6-6.5-4.2c-5.9,2.7-11.6,5.7-17.2,8.9c-1.1,0.6-1.4,2.8-2.1,4.2
		c-0.1,1.7-0.3,3.5-0.4,4.8c4.2-1,8-1.9,11.9-2.9c-1.1,5.6-2.1,11.2-3.4,16.8c-2,8.8-4.2,17.5-6.4,26.2c-0.4,1.8-0.9,3.5-1.6,6.3
		c3.7-1.4,6.5-2,8.7-3.4C310.9,392.1,311.9,390,313.2,388.4z M524.3,385c2.9-10.7,5.7-21.4,8.6-32.1c4.3-7.3,12.2-8.7,20.8-3.1
		c0.1-1.8,0.2-3.3,0.3-4.9c0.9-2.3,2-4.5,2.6-6.8c0.5-2,1.3-5.5,0.5-6c-1.8-1.2-4.7-1.6-6.9-1.1c-2.8,0.6-5.5,2.3-8,3.7
		c-1.9,1.1-3.7,2.6-5.9,4.2c-0.1-1.4-0.2-2-0.3-2.7c-0.2-5.9-0.9-6.6-6.3-4.2c-5.9,2.7-11.6,5.7-17.2,8.9c-1.2,0.7-1.5,2.8-2.2,4.2
		c-0.1,1.7-0.3,3.5-0.4,4.8c4.2-1,8-2,11.9-2.9c-1.5,7-2.9,14.1-4.5,21.1c-1.6,7.3-3.4,14.6-5.2,22c-0.5,1.7-1,3.5-1.6,5.6
		C522.1,393.6,523.1,392.8,524.3,385z M360.8,463.6c-0.3,1.7-0.6,3.5-0.9,5.2c0.9,0.1,1.9,0.6,2.6,0.3c5.2-2.1,10.6-11.2,10.4-17
		c0.9-2.7,1.7-5.5,2.6-8.2c-0.6-0.3-1.1-0.7-1.7-1c-1.9,1.3-5.4,2.4-5.5,3.9C367.8,453.4,364.3,458.5,360.8,463.6z M78.1,322
		c0.5,2.2,1.1,4.3,1.8,7.4c3.6-4.1,10.2-4.5,9.5-11.4c-1-9.7-6.8-14.4-16-12.5c-12.8,2.7-21.8,10.4-26.9,22.2
		c-1.6,3.6-1,8.1-1.4,12.3c-1.2,8.2,4,12.9,9.4,17.4c5.3,4.5,11.3,8.3,13.6,15.4c-0.9,9.4-6.7,16.8-15.7,19.1
		c-15.6,3.9-25.1-2.9-29.2-18.5c-0.6,0.1-1.2,0.2-1.7,0.3c-2.2,5.7-4.3,11.5-6.5,17.2c0.9,2.5,1.2,5.7,3,7.2
		c2.9,2.5,6.6,4.7,10.3,5.7c21,5.6,46.6-10.4,51.4-31.7c0.1-0.8,0.1-1.6,0.2-2.3c0-0.2,0-0.5,0-0.7c1.4-7.2-0.9-12.9-6.6-17.5
		c-4.7-3.9-9.3-7.9-14-11.8c-3.3-2.8-4.7-6.2-4.1-10.5c1.9-2.9,3.4-6.2,5.9-8.5C66.9,315.3,73.7,316,78.1,322z M241,309.9
		c-1.4-3-2.7-6.1-4.2-9.5c-3.6,2.6-6.5,4.6-9.3,6.8c-0.6,0.5-0.4,1.8-0.5,2.8c-0.7,5.3,2.5,8.8,5.3,12.8c2.8-2.3,5.1-4.2,7.4-6.1
		C242.1,314.8,242.8,312.6,241,309.9z M268.9,436.1c-0.2,1.6-0.5,3.2-0.8,4.8c-1,5.7-2,11.5-3,17.2c0.8,5.5,1.8,6,6.5,3.3
		c2.4-1.4,4.6-3.2,7.1-4.5c3-1.5,3.8-3.8,3.2-6.9c-0.4-4.4-2.3-0.5-3.5-0.6c-1.8-0.1-3.3,4.1-5.4,0.5c1.4-7.2,2.7-14.4,4.1-21.6
		c1.2-2.3,0.2-4.3-1.9-3.2c-4.2,2.1-7.8,5.3-11.6,8.1c0,1.6,0,3.1,0,5.3C265.7,437.5,267.3,436.8,268.9,436.1z M291.9,367
		c1.1-4.6,2.2-9.2,3.3-13.7c0.2-3.9,1-8,0.3-11.8c-1.6-8.6-8.6-12.5-17.2-10.4c-22.1,5.3-37.1,26.3-35.1,49.1c0,0.9-0.1,1.7-0.1,2.6
		c0.1,0.7,0.2,1.4,0.3,2.2c2.1,9.5,7.9,13.7,17,10.9C275.2,391.2,287.5,383.3,291.9,367z M442.9,326c0.4,2.2,0.7,4.4,1.2,7
		c2.4-1.9,4.5-3.3,6.1-5.1c1.8-2.1,3.2-4.5,4.7-6.8c0-8.5-4.3-14.9-11.3-15.8c-4.4-0.6-9.2-0.8-13.3,0.4
		c-27.4,7.9-44.1,26.7-52,53.5c-2.7,9.3-4.9,19-1.3,28.7c-0.2,0.4-0.6,0.9-0.5,1.2c2.7,10.4,10.1,16.1,21.1,16.1
		c13.8,0,25.8-5.3,37.3-12.5c3.1-2,4.9-4.3,4.3-8.1c0.2-1.1,0.5-2.1,0.6-2.6c-8.8,3.7-17.1,8-25.9,10.5
		c-12.2,3.5-22.2-1.9-24.6-12.2c-2.1-9.3-0.6-18.5,2.6-27.4c1.7-3.8,3.2-7.7,5.2-11.3c5.9-10.5,13.3-19.5,25.1-23.7
		C432.5,314.3,438.1,316.6,442.9,326L442.9,326z M362,427.5c-2-1-4.1-3.1-6-2.9c-7.1,0.7-12.3,7.4-11.9,14.6
		c-1.5,5.9,2.9,8.3,6.7,11c-1.6,1.5-3.2,3.1-4.8,4.6c-1.9-2.2-3.8-4.4-6-6.9c-0.9,0.5-2.6,1.5-4.2,2.5c-0.2-1.1-0.4-2.1-0.7-3.5
		c-3.3,2.1-6.1,4.3-9.2,5.6c-2.5,1.1-6,2.4-7-2.3c3.6-2.6,7.2-5.1,10.7-7.8c3.4-2.6,5.2-5.9,4.1-10.2c-0.4-2.2-0.2-5.6-1.4-6.3
		c-1.9-1-5.3-1-7.3,0c-11.1,6.2-14.3,16.3-13.1,28.3c-0.1,7.9,4,11.1,11.3,7.9c3.8-1.7,7.1-4.7,10.6-7.1c0.7,0,1.4,0.1,2.1,0.1
		c-0.4,6.6,2.9,9.7,9,7.5c4-1.5,7.6-4.4,10.9-7.3c1.2-1,0.8-3.8,1.1-5.7l-0.1,0.1c0.3-0.5,0.5-0.9,0.8-1.4c0.9-3.9-0.1-6.9-3.8-9
		c-1.5-0.9-2.3-2.9-3.4-4.4c2.9-0.1,5.7-0.2,8.6-0.4C361.9,433.5,364.4,431.3,362,427.5z M488.1,431.9c-0.8-2.3-1-5.1-2.6-6.7
		c-0.8-0.9-4-0.2-5.8,0.6c-11.3,5.1-15.5,17.1-14.3,29.5c0.8,7.5,3.7,9.4,10.5,6.7c3.4-1.3,6.4-3.4,9.7-5c2.9-1.5,4.1-3.7,3.3-6.9
		c0.2-0.8,0.4-1.6,0.9-3.3c-3.9,2.2-6.8,4.4-10.1,5.7c-1.7,0.7-4.5,0.6-5.9-0.4c-1-0.7-0.9-3.4-0.9-5.3c0-2,0.6-3.9,0.9-5.8
		c2-2.4,4.1-4.7,6.1-7.1c1.4,1.3,2.9,2.6,4.5,4.1C487.3,437.2,488.8,435.2,488.1,431.9z M308.5,450.2c0-1,0-1.9,0-3.4
		c-2,1.2-3.3,2.2-4.7,3c-1.6,0.9-3.1,1.9-4.7,2.6c-5.2,2.1-7.6,0.3-7.1-5.2c0.2-1.8,0.6-3.5,0.9-5.3c1.9-2.7,3.9-5.4,5.8-8.1
		c1.6,1.3,3.3,2.6,6,4.7c0.9-2.1,1.9-4.2,2.8-6.3c0.5-5.8-2.3-8.9-6.5-7.5c-10.6,3.5-19,19.3-16.1,30.3c0.2,7.3,3.5,9.7,10.1,7.1
		c3.5-1.4,7-3.1,10-5.5C306.8,455.2,307.4,452.4,308.5,450.2z M414.1,418.9c-2,8.6-4.1,17.2-6,25.9c-1,4.9-1.6,9.8-7.3,11.7
		c-1.1,1.4-2.2,2.8-3.3,4.3c0.4,0.4,0.8,0.8,1.2,1.2c5.6,0,11.3,0.2,16.9-0.1c1.5-0.1,3.2-1.5,4.1-2.8c0.4-0.6-0.9-2.4-1.4-3.7
		c-1.4-0.1-2.8-0.3-4.2-0.4c0.2-1.3,0.3-2.6,0.6-3.9c2.4-10.1,4.8-20.1,7.2-30.1c0.4-0.7,0.8-1.3,1.2-2c6.8-0.9,7.3-1.4,6.5-7
		c-1.1,0.1-2.2,0.2-3.3,0.3c-4.1-0.1-8.1-0.5-12.2-0.3c-1.7,0.1-3.3,1.3-5,2c0,1.5,0,3.1,0,4.9C410.9,418.9,412.5,418.9,414.1,418.9
		z M194,433c-0.5-2.5-0.1-6-1.6-7.3c-1.4-1.2-5.2-0.9-7.2,0.1c-10.7,6-14.2,15.6-13,27.4c-0.5,3.8-0.3,7.5,3.8,9.4
		c6.1,2.8,19.1-5.5,19.6-12.3c0-1,0-2,0-3.5c-3.6,2.2-6.3,4.4-9.5,5.7c-2.6,1.1-6,2.3-7-2.3c3.6-2.6,7.3-5.1,10.7-7.8
		C192.8,440,194.9,437.1,194,433z M435,435.7c-1.8,7.2-3.7,14.3-5.5,21.5c-0.1,1.7-0.2,3.4-0.3,5.3c4.3-0.9,7.6-1.9,7-6.7
		c1-4.6,1.9-9.2,2.9-13.8c4-2.1,8-4.1,12-6.2c-1.3,7.1-2.6,14.2-3.9,21.3c0.2,2,0.3,3.9,0.6,7c5.2-3.3,9.3-5.7,13.1-8.6
		c1.4-1.1,1.8-3.5,2.7-5.3c0-1,0-1.9,0-2.9c-3.5,1.3-6.6,2.5-9.6,3.7c0.4-1.7,0.9-3.5,1.3-5.2c1.3-5.9,2.5-11.8,3.7-17.6
		c0.5-4-1.5-4.4-4.4-2.8c-3.7,2-7.3,4.2-11.2,6.5c-0.3-2.6-0.4-4.5-0.8-7.6c-5,2.6-10.3,3-13.3,8c-0.5,1.5-0.9,3-1.7,5.3
		C430.9,436.7,432.9,436.2,435,435.7z M150.8,425.8c1.5-3.8,4.4-6.7,8.5-6.2c2.1,0.3,3.9,3.1,6.2,5.1c4.2-2,4.2-2,4.4-6.6
		c-0.8-5.9-2.3-7.3-7.8-7.2c-9.6,0.1-17.5,9.1-16.8,19.3c-1.1,4.9,1.4,8.2,4.8,11.2c2.6,2.3,4.8,4.9,7.2,7.4
		c-1.1,5.9-4.6,9.3-10.5,10.1c-5.7,0.8-10.3-2.6-14.4-11.9c-1.4,4.7-2.5,8.1-3.6,11.6c-1.1,5.6,2.8,7.3,6.9,8.5
		c11.4,3.4,29.2-6.9,28.7-20.1c2.3-7-3.2-10-7.1-13.9C155.1,430.7,153,428.2,150.8,425.8z M231,342.2c0.3-0.3,0.5-0.7,0.8-1
		c0.4-1.2,1.2-2.5,1.1-3.7c-0.1-2-0.1-5-1.3-5.8c-1.2-0.8-4.1,0.1-5.8,1c-5.1,2.7-10.1,5.6-14.8,9c-1.5,1-1.9,3.6-2.8,5.5
		c-0.1,1.6-0.2,3.1-0.3,4.6c4-1.3,7.6-2.5,11.2-3.8c-0.9,4.2-1.9,8.4-2.7,12.6c-1.8,9.5-3.5,19.1-5.2,28.7c0.1,7.4,2.8,9.1,9.1,5.5
		c5.9-3.4,11.4-7.4,17.2-10.8c2.8-1.7,4-3.7,3.5-6.9c0.2-1.2,0.4-2.5,0.7-4.4c-6.2,3-11.5,5.5-17.8,8.5c0-4.4,0-7.2,0-9.9
		c2.3-9.4,4.7-18.8,7-28.2C231.1,342.7,231.1,342.4,231,342.2z M594.8,343.2c0.7-4.3,0.7-9.3-3.6-10.9c-3.6-1.3-8.7-1.1-12.2,0.5
		c-18.8,8.5-27.1,31.4-24.4,51.2c1.4,10.9,7.5,15,18,11.9c9.1-2.7,16.3-8.7,22.9-15.3c1-1,0.9-3,1.4-4.5c0-1.6,0-3.1,0-5.6
		c-2.1,1.5-3.6,2.5-5.1,3.4c-4.2,2.7-8.1,5.8-12.6,7.9c-7.5,3.6-12.6,0.4-13.3-8c6.4-4.6,12.9-9.1,19.2-13.9
		C590.7,355.8,595.2,350.9,594.8,343.2z M136,375c0.2-1.2,0.5-2.4,0.7-3.7c-3.8,1.5-6.3,4-9.4,5.6c-4.6,2.4-9.4,5-14.5,5.9
		c-5.2,0.9-8.3-4.3-6.7-9.6c7-5,14.1-9.9,20.8-15.2c4.7-3.7,8-8.4,6.9-15c2.3-3.8,0.8-7.9-1.9-9.7c-2.7-1.8-7.4-2.5-10.6-1.7
		c-7.6,2-13.4,7.1-17.9,13.5c-7.9,11.1-10.8,23.4-9.4,36.9c0,12.2,7.6,18.1,18.9,13.4c7.3-3.1,13.8-8.3,20.2-13.2
		C134.9,380.9,135.1,377.5,136,375z M450.5,387.2c1.7,10.3,4.6,11.9,13.4,6.6c5.9-3.6,11.4-7.7,17.2-11.6c-0.1,3.1-0.1,6.2-0.2,9.3
		c0,5.2,1.4,6.3,5.6,3.8c6.6-4,12.9-8.5,19.5-12.6c2.6-1.7,3.5-3.7,2.9-6.6c0-1.3,0-2.6,0-4.4c-5.4,3-10,5.5-15.6,8.5
		c0.7-5.9,1.2-10.1,1.8-14.3c1.6-6.6,3.2-13.3,4.9-19.9c1.8-4.4,3.6-8.8,5.7-13.8c-5.1-0.6-9.3-0.7-13.3-1.5
		c-13.3-2.6-23.7,3.8-30.9,13.1C451.7,356.3,448.7,371.5,450.5,387.2z M575.9,535.3c-180,0-359.6,0-539.3,0c0,28.6,0,57,0,85.2
		c180,0,359.6,0,539.3,0C575.9,592,575.9,563.8,575.9,535.3z M571.6,503.5c0-0.4,0-0.8,0-1.3c-87.6-13.1-175.9-17.7-264.4-17.9
		c-82.1-0.2-247.3,10.9-265.7,17.9c2.2,0.3,3.5,0.8,4.6,0.7c7-0.5,13.9-1.4,20.8-1.7c37.2-1.8,74.5-3.6,111.7-5
		c27.8-1,55.6-1.8,83.4-2c34-0.2,68-0.2,101.9,0.6c44.6,1,89.2,2.6,133.7,4.1c16,0.6,31.9,1.8,47.8,2.8
		C554.2,502.2,562.9,502.9,571.6,503.5z M260.4,199.5c33.2,15.3,42.8,45.4,52.5,75.6c-0.7-19.2-4.7-37.6-14.2-54.4
		c-8.9-15.6-21.8-26.1-39.6-30.3c-3.7-0.9-5.3,0-6.2,3.9c-3.3,13.5-4.9,27.1-3.9,41c1.8,26.9,12.6,49.3,32.1,67.7
		c1.3,1.2,2.9,2.2,4.4,3.2c0.4-0.3,0.7-0.6,1.1-0.9C260.3,274.8,251.8,240.1,260.4,199.5z M359,203.2c0.5,0.5,1,1,1.5,1.5
		c3.8,38.2-6,72.3-31.2,101.8c17.1-11.2,28.3-26.9,34.7-45.9c7.8-23.2,7.8-46.8,3.1-70.7c-18.3,6.4-45.7,31-48.3,42.4
		C332,222.8,345.5,213,359,203.2z M294.1,207.4c4.7-5.2,8.7-9.9,13-14.3c6.5-6.7,7.3-6.7,13.7,0.4c3.8,4.2,7.2,8.7,10.9,13
		c-3.7-12.4-8.1-24.2-17.9-33.1C305.8,179.6,296.3,196,294.1,207.4z"/>
	<path class="st1" d="M575.9,535.3c0,28.6,0,56.7,0,85.2c-179.7,0-359.3,0-539.3,0c0-28.2,0-56.6,0-85.2
		C216.2,535.3,395.8,535.3,575.9,535.3z M270.2,599.7c-8.7-4.8-9.1-5.1-9.2-9.3c-0.1-11.4,0-22.9,0-34.3c0.2-0.1,0.5-0.1,0.7-0.2
		c5.8,15.1,11.5,30.2,17.3,45.3c0.7-0.1,1.3-0.1,2-0.2c5.3-15,10.6-30,15.9-45.1c0.9,11.5,0.9,22.6,0.9,33.8c0,7.4,0,7.4-7.3,8.6
		c-0.2,0-0.3,0.5-0.5,0.8c2.9,2.8,20.8,2.6,23-0.5c-0.7-0.2-1.3-0.6-1.8-0.6c-5.4,0.6-6.4-2.3-6.3-6.9c0.2-9.3,0.1-18.7,0.1-28
		c0-8.8,0-8.8,8.2-11c-0.5-0.7-0.9-1.8-1.3-1.8c-5.2-0.1-10.6-1.1-15.3,0.4c-2.2,0.7-3,6.1-4.4,9.4c-0.5,1.2-0.8,2.5-1.3,3.8
		c-2.8,8.1-5.7,16.1-9,25.4c-3.8-10-7.1-18.6-10.4-27.3c-4.7-12.5-4.7-12.5-18.2-11.8c-0.8,0-1.7,0-2.4,0.3
		c-0.5,0.2-0.7,0.9-1.2,1.8c1.1,0.3,1.8,0.8,2.5,0.7c4.7-0.7,6,1.5,5.9,6c-0.3,10.2-0.1,20.3-0.1,30.5c0,4.3-1.3,7.5-6,8.4
		c-0.8,0.2-1.5,1.2-2.3,1.9c0.2,0.4,0.4,0.8,0.6,1.2C256.6,600.3,263,601.9,270.2,599.7z M464.6,570.5c0.9,0.8,1.4,1.4,2.1,1.7
		c1.1,0.5,2.3,1.4,3.3,1.2c0.7-0.2,1.8-1.9,1.6-2.7c-0.3-1.3-1.3-2.9-2.4-3.3c-1.4-0.4-3.5-0.2-4.6,0.6c-2.3,1.6-4.1,1.6-6.7,0.6
		c-6.6-2.5-13.9-0.3-17,4.7c-2.8,4.6-1.9,8.9,3,14.2c-6.6,5.4-6.7,8.3-1.1,12.3c-1.6,2.7-4.5,5.3-4.4,7.8c0.2,4.4,4.5,5.8,8.5,6.3
		c3.4,0.4,7,0.4,10.4,0c7-0.9,11.7-5.8,11.2-11.2c-0.5-5-4.4-7.5-12.2-7.5c-3,0-6,0.4-9,0c-1.4-0.2-2.6-1.8-4-2.7
		c1.2-0.9,2.4-2,3.8-2.5c1.2-0.4,2.6-0.1,4-0.1c12-0.3,16.5-6.4,12.9-17.6C464,572,464.2,571.6,464.6,570.5z M117.4,570.8
		c2.4-5.3,1.7-18.4-0.9-21.8c-1.1,1.6-2.1,3-3.1,4.5c-12-6.6-21.9-5.5-28.9,3.7c-6.4,8.5-8.4,18.1-5.2,28.3
		c3.9,12.7,16.9,19.6,28.7,15.5c7.7-2.7,13.2-11.6,10.6-19.1c-0.9,2.6-1.4,4.2-1.9,5.7c-2.5,7.5-8,11.6-15.2,11.3
		c-6.7-0.3-12.1-4.3-13.3-12c-1-7.3-0.9-14.9-0.1-22.2c0.8-7.3,5.9-11.9,11.7-12.5c5.6-0.6,10.8,3,13.9,9.5
		C115,564.2,116,567,117.4,570.8z M366.5,567.7c-3.9,0.5-7.2,0.9-10.6,1.2c-0.1,0.6-0.1,1.1-0.2,1.7c5.4,0.1,6.1,3.3,5.8,7.5
		c-0.2,3.8-0.2,7.7,0,11.5c0.2,4.4,0.6,8.7-5.9,9.1c3.8,3.2,15.7,2.8,17,0.4c-1.6-1.2-4.5-2.3-4.6-3.6c-0.3-5.8-0.4-11.7,0.5-17.4
		c0.6-4.1,5.5-6.8,9.1-6c4.4,1,5.5,4.4,5.5,8.3c0,2.8,0.1,5.7,0,8.5c-0.1,4.2,1.5,9.3-5.9,9.7c4,3,15.2,2.8,17.4,0.2
		c-5.7-2.2-5.7-2.2-5.7-8.8c0-3.8,0.1-7.7,0-11.5c-0.3-8.8-7.2-13.2-15.2-9.6c-2.3,1-4.3,2.8-6.4,4.2
		C367,571.6,366.8,570.1,366.5,567.7z M434,596.6c-8.3,3.2-7.1-1.8-7.1-5.6c-0.1-4.5,0-9,0-13.5c0-4-1.6-7.4-5.5-8.6
		c-5.5-1.8-11.2-2-16.3,1.5c-1.6,1.1-3.2,2.8-3.6,4.5c-0.4,1.6,0.3,3.9,1.4,5.2c0.6,0.8,3.6,0.8,4.3,0c0.9-1,0.7-3.1,0.8-4.7
		c0-0.7-0.5-1.5-0.8-2.4c3.3-3,6.9-3.1,10.3-1.3c3.7,2,3.6,5.6,3,9.4c-1.7,0.3-3.4,0.4-4.9,1c-4.2,1.5-8.8,2.6-12.2,5.2
		c-2.2,1.6-3.9,5.8-3.4,8.4c0.4,2.3,3.9,4.7,6.5,5.6c5.5,2,10.2-0.9,14.3-4.4C425.8,603,429.6,603.4,434,596.6z M148.3,596.7
		c4.1,5.3,7.7,6.4,11.1,3.7c0.5-0.4,1.1-1.4,1-1.9c-0.1-0.5-1.2-1.3-1.8-1.1c-4.6,1-4.5-2.2-4.5-5c-0.1-5.2,0.2-10.3-0.1-15.5
		c-0.1-2.1-0.9-4.7-2.3-6.2c-4.7-5-17.8-3.6-21.7,2c-0.6,0.9-1.3,2.2-1.1,3.2c0.3,1.6,1,3.5,2.1,4.5c0.7,0.6,3.3,0.4,3.9-0.4
		c0.8-1,1.2-3.2,0.6-4.4c-1.5-3.4,0.5-4.3,3-4.7c1.9-0.3,4.1-0.3,5.9,0.4c3.4,1.2,4.4,4.3,3.5,7.3c-0.4,1.4-2.7,2.5-4.3,3.3
		c-4.4,1.9-9.3,3-13.1,5.6c-2,1.4-3.5,5.6-3,8.1c0.4,2.2,3.6,4.5,6.1,5.5C139.1,603.2,143.9,600.8,148.3,596.7z M325.9,571.7
		c2.9-0.3,5.6-1.1,8.2-0.8c4,0.4,5.2,3.4,5.4,7.2c0.2,3.9-2.8,3.2-5,4c-4.5,1.6-9.2,3-13.1,5.7c-1.9,1.3-3.4,5.4-2.9,7.7
		c0.5,2.2,3.5,4.6,6,5.6c5.7,2.3,10.6-0.5,14.9-4.2c4.1,5.1,7.4,6.2,11,3.6c0.6-0.4,1.3-1.3,1.3-1.9c0-0.5-1.2-1.4-1.7-1.3
		c-5.2,1.4-4.6-2.5-4.7-5.3c-0.2-5.2,0.2-10.3-0.2-15.5c-0.1-2.1-1-4.7-2.5-6.2c-4.7-4.7-17.7-3.4-21.3,2.2
		c-1.1,1.7-0.8,4.6-0.3,6.8c0.1,0.6,3.1,0.7,4.7,1c0.2-2.1,0.4-4.2,0.5-6.2C326.2,573.9,326.1,573.6,325.9,571.7z M504.3,585.1
		c0.1-9.3-3.9-15.6-10.2-17c-8.8-2-16.2,2.7-18.4,11.7c-2.5,9.9,2,19,10.5,21.3c6.7,1.9,13.9-0.9,17.3-6.7c0.5-0.9,0.4-2,0.6-3.1
		c-0.4-0.2-0.7-0.5-1.1-0.7c-3.9,5.4-8.3,9.8-15.3,6.6c-5-2.2-5.6-6.9-5.6-12.2C489.4,585.1,496.7,585.1,504.3,585.1z M171.2,599.3
		c2.7,0.9,5,1.9,7.5,2.3c6.2,1,12.3-3.1,13.2-8.7c0.9-5.7-2.4-9.5-9.6-11c-2.8-0.5-5.7-0.8-8.2-2c-1.6-0.8-3.4-3.2-3.2-4.7
		c0.2-1.6,2.4-3.7,4.1-4.2c4.6-1.2,8.5,0.5,10.9,4.9c0.8,1.4,1.8,2.7,2.7,4c0.5-0.2,1-0.4,1.4-0.6c-0.3-3.7-0.7-7.5-0.9-10.1
		c-3.3-0.4-5.5-0.3-7.5-0.9c-6.5-1.9-13.1,1-14.6,6.8c-1.6,6,1.4,10,8.7,11.9c2.6,0.6,5.4,0.8,7.7,1.9c1.7,0.8,3.8,2.9,3.8,4.4
		c0,1.6-2,3.8-3.6,4.6c-4.6,2.3-10-0.1-12.9-5.2c-0.9-1.6-2.1-3.2-3.1-4.7c-0.5,0.2-1.1,0.5-1.6,0.7c0.3,4.2,0.6,8.4,1,13.5
		C169.3,600.8,170.4,599.9,171.2,599.3z M226.8,585.1c0.3-10.2-4.8-16.8-12.7-17.2c-9.7-0.5-16,5.6-16.7,16.3
		c-0.6,9.3,5.7,17,14.5,17.7c6.9,0.5,13.8-4.5,14.5-11.1c-3,2.5-5.4,5.2-8.4,6.7c-3.6,1.8-7.9,1.4-10.4-2c-2-2.7-2.7-6.4-4.3-10.4
		C211.8,585.1,219.1,585.1,226.8,585.1z M509.1,598.8c2.3,3.2,18,3,19.7-0.4c-2.9-1-8.2,0.8-7.6-4.7c0.6-5.9,2-11.7,3.5-17.4
		c0.5-1.9,2.7-3.3,4.1-4.9c1,1.4,0.7,2.2,1,2.6c1,1.6,2.2,3,3.3,4.5c1.3-1.6,3.4-3.2,3.5-4.9c0.1-1.7-1.7-4.5-3.1-4.9
		c-2.3-0.6-5.4-0.1-7.3,1.1c-2.2,1.4-3.4,4.2-5.4,6.8c-0.2-3.1-0.4-5.8-0.6-8.8c-4.1,0.3-7.7,0.5-11.4,0.7c0,0.5,0.1,1,0.1,1.5
		c6.1,2.7,6.1,2.7,6.1,10.5c0,3.2,0,6.3,0,9.5C515.1,597,515.1,597,509.1,598.8z"/>
	<path class="st2" d="M571.6,503.5c-8.7-0.6-17.3-1.2-26-1.8c-15.9-1-31.9-2.2-47.8-2.8c-44.6-1.6-89.2-3.2-133.7-4.1
		c-34-0.7-68-0.8-101.9-0.6c-27.8,0.2-55.6,0.9-83.4,2c-37.2,1.4-74.5,3.2-111.7,5c-7,0.3-13.9,1.2-20.8,1.7
		c-1.2,0.1-2.4-0.3-4.6-0.7c18.4-7,183.7-18.1,265.7-17.9c88.5,0.2,176.8,4.8,264.4,17.9C571.6,502.6,571.6,503,571.6,503.5z"/>
	<path class="st3" d="M260.4,199.5c-8.6,40.6-0.1,75.3,26.1,105.8c-0.4,0.3-0.7,0.6-1.1,0.9c-1.5-1.1-3.1-2-4.4-3.2
		c-19.5-18.4-30.3-40.8-32.1-67.7c-0.9-13.9,0.6-27.5,3.9-41c1-3.9,2.5-4.7,6.2-3.9c17.8,4.2,30.7,14.7,39.6,30.3
		c9.6,16.8,13.5,35.2,14.2,54.4C303.2,244.9,293.5,214.7,260.4,199.5z"/>
	<path class="st4" d="M55.2,329.3c-0.6,4.3,0.9,7.8,4.1,10.5c4.6,3.9,9.2,8,14,11.8c5.6,4.6,7.9,10.3,6.6,17.5
		c-0.1,0.1-0.3,0.2-0.3,0.2c0.1,0.2,0.2,0.3,0.3,0.5c-0.1,0.8-0.1,1.6-0.2,2.3c-2.6,3.7-5,7.5-7.8,11c-10.6,13.5-40.4,26-56.9,7.8
		c2.2-5.7,4.3-11.5,6.5-17.2c0.6-0.1,1.2-0.2,1.7-0.3c4.1,15.6,13.6,22.4,29.2,18.5c9-2.3,14.8-9.7,15.7-19.1
		c1.5-7.3-3.3-11.6-8-15.6c-5.8-5-12.5-9.3-15.1-17.2c0.4-4.1-0.2-8.6,1.4-12.3c5.1-11.8,14.1-19.5,26.9-22.2
		c9.2-2,15.1,2.8,16,12.5c-2.5,1.5-4.9,3.1-7.4,4.4c-0.7,0.4-2-0.3-3-0.4c-0.6-5.7-3.1-9-7.4-9.8C65.2,311,53.7,318.5,55.2,329.3z"
		/>
	<path class="st4" d="M391.8,352.9c-3.1,8.9-4.7,18-2.6,27.4c2.3,10.3,12.4,15.7,24.6,12.2c8.8-2.5,17.1-6.9,25.9-10.5
		c-0.1,0.5-0.3,1.6-0.6,2.6c-8.3,6.2-17.3,11.2-27.5,13.7c-9.4,2.4-19.1,4.2-27.7-2.3c-2.8-2.1-4.8-5.4-7.1-8.1
		c-3.6-9.7-1.5-19.5,1.3-28.7c7.9-26.8,24.6-45.5,52-53.5c4.2-1.2,9-1,13.3-0.4c7.1,0.9,11.3,7.4,11.4,15.8
		c-2.7,1.6-5.4,3.3-8.2,4.7c-1,0.5-2.5,0.1-3.7,0.2c0,0,0.1,0.1,0.1,0.1c0.2-9.8-4.2-14.8-13.6-13.9c-5.4,0.5-11.2,2.3-15.6,5.3
		c-11.8,8.1-18.8,19.9-22.8,33.5C390.8,351.5,391.5,352.3,391.8,352.9z"/>
	<path class="st4" d="M495,366c-0.5,4.2-1,8.4-1.8,14.3c5.6-3,10.2-5.6,15.6-8.5c0,1.7,0,3,0,4.4c-5.4,3.6-10.7,7.5-16.4,10.8
		c-3.6,2.1-7.7,3.1-11.6,4.6c0.1-3.1,0.1-6.2,0.2-9.3c0.3-1.6,0.6-3.2,1.2-6c-6.3,4.4-11.3,8.1-16.5,11.6c-7.7,5.2-9.1,5.1-15.3-0.6
		c-1.7-15.8,1.3-30.9,10.8-43.3c7.2-9.3,17.6-15.7,30.9-13.1c4,0.8,8.2,1,13.3,1.5c-2,5-3.8,9.4-5.7,13.8
		C498.2,352.7,496.6,359.3,495,366z M465.1,356.1c-1,4.8-2.4,9.6-2.8,14.4c-0.3,3.2,1,6.5,1.5,9.8c3-0.9,6.2-1.5,9-2.9
		c2.6-1.3,5-3.3,7.3-5.2c1.3-1.1,2.8-2.6,3.2-4.1c2.1-8,3.8-16.1,5.6-24.1c0.6-1.4,1.2-2.9,1.9-4.3
		C475,335.1,464.9,341.8,465.1,356.1z"/>
	<path class="st5" d="M143.1,391c3.1-12.2,6.2-24.5,9.3-36.7c0.6-2.4,1.1-4.8,1.6-7.2c1-5.2,0.1-5.9-4.8-4.3
		c-2.3,0.8-4.6,1.6-6.9,2.4c0.8-1.4,1.2-3.5,2.4-4.2c5.6-3.3,11.3-6.4,17.1-9.2c1.4-0.7,4-0.8,4.9,0c1,0.9,1.1,3.3,0.9,5
		c-0.3,2.5-1.2,5-1.9,7.5c0.3,0.3,0.7,0.6,1,0.9c5.6-3.4,11.1-6.9,16.7-10.1c2.9-1.6,5.8-3.2,9-4.1c1.1-0.3,2.9,1.4,4.3,2.2
		c-0.3,2-0.5,3.9-0.8,5.9c0,0,0.1-0.1,0.1-0.1c-0.5,0.6-1.2,1.2-1.4,1.9c-2.6,9.1-5.1,18.3-7.5,27.5c-0.3,1.1,0.5,2.4,0.8,3.6
		c0,2.5,0.1,5,0.1,7.4c2.4-0.9,4.8-1.7,7.1-2.7c2.8-1.2,5.6-2.6,8.5-3.9c-0.3,1.1-0.2,2.8-0.9,3.3c-8.1,5.5-16.4,10.9-24.7,16.3
		c-1.4-2.1-2.1-3.2-2.8-4.2c1.8-9.4,3.5-18.7,5.3-28.1c0.8-4.4,1.7-8.7,2.5-13.1c0.2-1.5,0.3-3,0.5-4.5c-1.4,0.1-3-0.2-4.1,0.4
		c-4.3,2.4-8.4,5.4-12.8,7.6c-4.2,2.1-5.7,5.2-5.5,9.5c-0.1,1-0.1,2-0.2,3.1c-0.3,0.3-0.5,0.6-0.8,0.9c0,0,0.1-0.1,0.1-0.1
		c-2,7-4,14.1-6,21.1C152,389.9,146.7,388.9,143.1,391z"/>
	<path class="st3" d="M359,203.2c-13.5,9.8-27,19.5-40.2,29.1c2.6-11.4,30-36,48.3-42.4c4.7,24,4.8,47.5-3.1,70.7
		c-6.4,19-17.6,34.7-34.7,45.9c25.2-29.5,35-63.7,31.2-101.8C360,204.2,359.5,203.7,359,203.2z"/>
	<path class="st4" d="M243.4,385c-0.1-0.7-0.2-1.4-0.3-2.2c0-0.9,0.1-1.7,0.1-2.6c-2-22.8,13-43.9,35.1-49.1
		c8.6-2.1,15.6,1.8,17.2,10.4c0.7,3.8-0.2,7.8-0.3,11.8c-1.7,4.6-3.4,9.2-5.2,13.8c-5.9,13.9-17.6,20.4-31.2,24.2
		c-5.1,1.5-9.3-0.3-12.8-4.2C245.3,386.2,244.3,385.7,243.4,385z M257.1,359.1c-0.7,5-1.8,10.1-1.9,15.1c-0.1,4.2,1.5,8.1,6.1,9.9
		c4.2,1.6,7.5-0.2,10.5-2.6c1.5-1.2,2.8-2.8,3.9-4.5c5.3-8.1,8.4-16.8,8.4-26.6c-0.3-2.1-0.2-4.3-0.9-6.3c-1.6-5-5.9-7.7-10-6.7
		C265.6,339.5,257,351.1,257.1,359.1z"/>
	<path class="st6" d="M106.2,373.2c-1.5,5.4,1.6,10.6,6.7,9.6c5-0.9,9.8-3.5,14.5-5.9c3-1.6,5.5-4.1,9.4-5.6
		c-0.2,1.2-0.5,2.4-0.7,3.7c-7.3,5-14,11.1-21.9,14.9c-10.4,4.9-15.2,2.3-20-7.9c-1.4-13.5,1.5-25.8,9.4-36.9
		c4.6-6.4,10.4-11.5,17.9-13.5c3.2-0.9,7.9-0.2,10.6,1.7c2.7,1.8,4.2,5.9,1.9,9.7c-3.5,4.3-6.5,9.2-10.5,12.9
		c-4.9,4.5-10.6,8-16,11.9C105.1,369.3,103.6,370.8,106.2,373.2z M108.1,354.2c-0.7,2.7-1.4,5.4-2.4,9.6c3.7-2.6,6.4-4.2,8.7-6.2
		c4.2-3.5,8.4-7,8.5-13.2c1.4-5.1-2.2-7.9-4.9-7.3C113.6,338.2,107.1,349.3,108.1,354.2z"/>
	<path class="st6" d="M565.9,373.9c0.7,8.4,5.7,11.6,13.3,8c4.4-2.1,8.4-5.2,12.6-7.9c1.5-1,2.9-2,5.1-3.4c0,2.4,0,4,0,5.6
		c-1,0.5-2.1,0.8-3,1.5c-4.8,3.5-9.4,7.4-14.5,10.4c-5.1,3-10.9,5.9-16.9,2.9c-3-1.5-5.3-4.5-7.9-6.9c-2.7-19.8,5.6-42.8,24.4-51.2
		c3.5-1.6,8.7-1.8,12.2-0.5c4.3,1.6,4.3,6.6,3.6,10.9c-3,3.9-5.6,8.3-9.3,11.5c-5.5,4.8-11.6,8.8-17.7,12.8
		C565.2,369.3,563.9,371,565.9,373.9z M568.1,355.1c-0.4,2.4-0.8,4.8-1.2,7.4c8.8-3.7,15.5-11.1,16.3-17.7c-0.5-2.3-1-4.6-1.6-6.9
		c-2.2,0.5-5.1,0.4-6.5,1.7C570.9,343.8,568,348.9,568.1,355.1z"/>
	<path class="st5" d="M510.4,345.2c0.7-1.5,1-3.6,2.2-4.2c5.6-3.2,11.3-6.3,17.2-8.9c5.3-2.4,6.1-1.7,6.3,4.2c0,0.6,0.1,1.3,0.3,2.7
		c2.2-1.6,3.9-3.1,5.9-4.2c2.6-1.5,5.2-3.1,8-3.7c2.2-0.5,5.1-0.1,6.9,1.1c0.8,0.6,0,4-0.5,6c-0.6,2.3-1.7,4.5-2.6,6.8
		c-0.7-0.3-1.7-0.4-2.2-0.9c-3.8-4-8.1-3.5-12.7-1.6c-4.8,2-7.3,5.3-7.2,10.5c-3,10.7-5.9,21.3-8.9,32c-3.6,1.7-7.2,3.4-10.8,5.1
		c1.7-7.3,3.5-14.6,5.2-22c1.6-7,3-14.1,4.5-21.1c0.2-1.5,0.3-2.9,0.5-4.4c-1.4-0.2-3-0.8-4.2-0.4C515.5,343,513,344.2,510.4,345.2z
		"/>
	<path class="st5" d="M302.2,390.1c2.1-8.7,4.4-17.4,6.4-26.2c1.3-5.6,2.3-11.2,3.4-16.8c0.1-1.4,0.8-3.3,0.1-4.2
		c-0.6-0.8-2.7-1-4-0.7c-2.6,0.7-5.1,1.9-7.7,2.9c0.7-1.4,0.9-3.6,2.1-4.2c5.6-3.2,11.3-6.3,17.2-8.9c5.4-2.4,6.2-1.7,6.5,4.2
		c0,0.6,0.1,1.3,0.2,2.5c2.9-2,5.2-4.3,8-5.4c3.4-1.3,7.1-1.8,10.7-2.2c0.7-0.1,1.6,2,2.5,3.1c-1.6,3.4-3.2,6.8-4.9,10.2
		c-9.7-6.4-19.7-2.3-20.8,8.6c-3,11.2-6,22.5-9,33.7C309.3,387.9,305.7,389,302.2,390.1z"/>
	<path class="st6" d="M211.2,389.2c1.7-9.6,3.4-19.1,5.2-28.7c0.8-4.2,1.8-8.4,2.7-12.6c0-1.7,0.1-3.3,0.1-5
		c-1.5,0.3-3.1,0.3-4.5,0.8c-2.3,0.9-4.4,2.2-6.6,3.3c0.9-1.9,1.3-4.4,2.8-5.5c4.7-3.3,9.7-6.2,14.8-9c1.7-0.9,4.6-1.8,5.8-1
		c1.2,0.8,1.2,3.7,1.3,5.8c0.1,1.2-0.7,2.5-1.1,3.7c-0.3,0.3-0.5,0.7-0.8,1c0.1,0.3,0.1,0.6,0,0.8c-2.3,9.4-4.7,18.8-7,28.2
		c0,2.8,0,5.5,0,9.9c6.3-3,11.5-5.5,17.8-8.5c-0.3,1.9-0.5,3.1-0.7,4.4c-6.2,3.9-12.3,7.8-18.5,11.6
		C218.9,390.8,215.1,392.9,211.2,389.2z"/>
	<path class="st4" d="M128.8,458.6c1.1-3.4,2.1-6.9,3.6-11.6c4.1,9.2,8.7,12.7,14.4,11.9c5.9-0.8,9.4-4.2,10.5-10.1
		c2.5-5.4-2.1-7.6-4.8-10.7c-2.4-2.7-4.8-5.3-7.2-7.9c-0.7-10.2,7.2-19.2,16.8-19.3c5.4-0.1,7,1.4,7.8,7.2c-1.8,0.7-3.6,1.4-5.4,2.1
		c-1.6-4.8-3.3-6.3-6.7-5.6c-5.1,1.1-8,5.7-6.9,11.2c2.2,2.4,4.2,4.9,6.5,7.2c3.9,3.9,9.4,6.9,7.1,13.9c-0.4,0.5-1,0.9-1.3,1.4
		C155.6,462.3,142.5,466.2,128.8,458.6z"/>
	<path class="st5" d="M447.2,457.1c1.3-7.1,2.6-14.2,3.9-21.3c0.3-1.5,0.6-2.9,1-4.7c-7.7,1.4-12,5.2-13,10.9
		c-1,4.6-1.9,9.2-2.9,13.8c-2.2,0.5-4.4,0.9-6.6,1.4c1.8-7.2,3.7-14.3,5.5-21.5c0-1.5,0-3,0-4.8c-2.5,0.6-4.1,0.9-5.7,1.3
		c2.9-5,8.3-5.4,13.3-8c0.3,3.1,0.5,5,0.8,7.6c3.9-2.3,7.5-4.5,11.2-6.5c2.9-1.6,4.9-1.2,4.4,2.8c-1.6,5.6-3.4,11.2-4.9,16.9
		c-0.5,1.9-0.1,4-0.1,6c3.1-1.2,6.2-2.3,9.6-3.7c0,1,0,1.9,0,2.9c-3.1,1.7-6.1,3.5-9.3,4.9C452,456.1,449.5,456.5,447.2,457.1z"/>
	<path class="st5" d="M231.8,456.6c-2.3-7.5,1.4-13.5,5.2-19.4c1.2-1.5,2.4-3,4-4.9c-8.4-0.4-8.4-0.4-11.6,5.9
		c-0.4,0.8-1.3,1.4-2,2.1c1.1-3.7,1.9-7.5,3.3-11.1c0.4-1.1,2.6-1.8,4.1-2c3.7-0.4,7.5-0.5,11.3-0.5c0.6,0,1.1,1.6,1.7,2.4
		c-6.4,4.3-9.7,10.3-9.8,18c0,0,0-0.1,0-0.1c-0.1,1-0.2,1.9-0.2,2.9c0.7,3.9,3,3.9,5.9,2.4c6.4-3.4,11.3-14.7,10-21.9
		c-0.4-2,0.3-4.6,1.3-6.4c0.5-0.8,4.5-0.7,4.7-0.2c0.8,2.3,0.9,4.8,1.2,7.3c-3.4,6.2-6.2,12.9-10.5,18.4
		C245.3,456.2,237.6,460.6,231.8,456.6z"/>
	<path class="st3" d="M294.1,207.4c2.3-11.4,11.8-27.7,19.6-33.9c9.7,8.9,14.2,20.7,17.9,33.1c-3.6-4.3-7.1-8.8-10.9-13
		c-6.4-7.1-7.2-7.1-13.7-0.4C302.8,197.4,298.8,202.1,294.1,207.4z"/>
	<path class="st5" d="M179.1,450.1c1,4.6,4.4,3.4,7,2.3c3.1-1.3,5.9-3.5,9.5-5.7c0,1.6,0,2.5,0,3.5c-3.9,2.3-7.8,4.9-11.9,6.9
		c-5.2,2.5-8.8,1.1-11.5-3.9c-1.2-11.8,2.3-21.4,13-27.4c1.9-1.1,5.8-1.3,7.2-0.1c1.5,1.3,1.2,4.8,1.6,7.3
		c-4.4,3.7-8.8,7.5-13.3,11.1C178.6,445.8,176.6,447.3,179.1,450.1z M186.8,433.2c0.1-1.4,0.4-2.8,0.4-4.2c0-0.2-1.5-0.6-2.1-0.4
		c-3.6,1.2-6.5,8.4-5.1,12.4C183.7,439.6,187,438,186.8,433.2z"/>
	<path class="st7" d="M312.1,454.1c-1.3-12,1.9-22.2,13.1-28.3c1.9-1.1,5.3-1.1,7.3,0c1.2,0.7,1,4.1,1.4,6.3c-4.3,3.9-8.6,8-13,11.7
		c-2.2,1.8-4.3,3.3-1.8,6.3c1,4.7,4.4,3.4,7,2.3c3.1-1.3,5.8-3.5,9.2-5.6c0.3,1.4,0.5,2.5,0.7,3.5c-0.3,0.2-0.6,0.5-0.8,0.7
		c-1.6,0.8-3.5,1.3-4.9,2.4C323,459.3,316.6,459.6,312.1,454.1z M326.8,433.2c0-1.5,0.1-3.1,0.1-4.6c-1.4,0.5-3.7,0.6-4.1,1.5
		c-1.6,3.5-2.6,7.2-3.8,10.9c-0.3,0.3-0.5,0.7-0.1,0.1c-0.1,0.7-0.1,0.3,0-0.2c0.3,0,0.6,0,0.9,0
		C323.5,439.6,326.7,437.8,326.8,433.2z"/>
	<path class="st4" d="M409,414c1.7-0.7,3.3-1.9,5-2c4-0.2,8.1,0.2,12.2,0.3c-0.9,0.6-1.8,1.1-2.5,1.7c-1.6,1.4-3.6,2.9-0.6,4.9
		c-0.4,0.7-0.8,1.3-1.2,2c-0.5,0.3-1.4,0.6-1.6,1c-2.7,10.4-5.3,20.7-7.8,31.1c-0.1,0.5,1,1.2,1.5,1.9c1.4,0.1,2.8,0.3,4.2,0.4
		c-0.7,0.5-1.5,1.5-2.2,1.5c-5.1,0-10.2-0.2-15.2-0.4c5.7-1.9,6.3-6.9,7.3-11.7c1.9-8.7,4-17.3,6-25.9c0.7-1.3,1.4-2.6,2.6-4.9
		C413.4,414,411.2,414,409,414z"/>
	<path class="st8" d="M15,391c16.5,18.2,46.3,5.7,56.9-7.8c2.8-3.5,5.2-7.3,7.8-11c-4.8,21.3-30.4,37.3-51.4,31.7
		c-3.7-1-7.4-3.2-10.3-5.7C16.2,396.7,15.9,393.5,15,391z"/>
	<path class="st9" d="M376.9,387.8c2.3,2.7,4.3,6,7.1,8.1c8.6,6.5,18.3,4.6,27.7,2.3c10.1-2.5,19.1-7.5,27.5-13.7
		c0.6,3.8-1.2,6.1-4.3,8.1c-11.4,7.2-23.5,12.5-37.3,12.5c-11.1,0-18.4-5.7-21.1-16.1C376.3,388.7,376.7,388.2,376.9,387.8z"/>
	<path class="st7" d="M292.9,441.9c-0.3,1.8-0.7,3.5-0.9,5.3c-0.6,5.5,1.9,7.3,7.1,5.2c1.7-0.7,3.2-1.7,4.7-2.6
		c1.4-0.8,2.7-1.7,4.7-3c0,1.5,0,2.4,0,3.4c-3.9,2.1-7.7,4.3-11.6,6.2c-4.3,2.1-8.4,2.5-12-1.5c-3-11,5.4-26.8,16.1-30.3
		c4.3-1.4,7,1.8,6.5,7.5c-1.4,0.1-2.8,0.3-4.2,0.4c-1.8-1.8-4.2-3.4-6.1-2.9C294.2,430.6,291.8,438.4,292.9,441.9z"/>
	<path class="st7" d="M473.9,440.9c-0.3,1.9-0.9,3.9-0.9,5.8c0,1.8-0.1,4.6,0.9,5.3c1.5,1,4.2,1.1,5.9,0.4c3.3-1.3,6.2-3.4,10.1-5.7
		c-0.4,1.6-0.7,2.5-0.9,3.3c-3.4,2-6.8,4.2-10.3,6.1c-4.5,2.5-9.1,3-13.3-0.8c-1.2-12.4,3-24.4,14.3-29.5c1.8-0.8,4.9-1.5,5.8-0.6
		c1.5,1.6,1.8,4.4,2.6,6.7c-1.4,0.3-2.8,0.7-4.2,1c0.1-0.5,0.2-1,0.3-1.5c-2.1-0.6-4.4-2.2-6.1-1.6
		C474.7,430.9,472.4,438.3,473.9,440.9z"/>
	<path class="st4" d="M335,451c0.3-0.2,0.6-0.5,0.8-0.7c1.7-1,3.4-2,4.2-2.5c2.2,2.5,4.1,4.7,6,6.9c1.6-1.5,3.2-3.1,4.8-4.6
		c3.7-1,1.8-2.9,0.5-4.2c-2.3-2.4-4.8-4.5-7.2-6.7c-0.4-7.2,4.8-13.9,11.9-14.6c1.9-0.2,4,1.9,6,2.9c-0.9,1.2-1.8,2.4-2.7,3.6
		c-1.8-1.1-3.1-2.4-4.4-2.4c-1.7,0.1-3.7,0.9-4.9,2.1c-0.6,0.6,0.3,2.6,0.5,4c1.1,1.5,1.9,3.5,3.4,4.4c3.7,2.1,4.7,5.1,3.8,9
		c-0.3,0.5-0.5,0.9-0.8,1.4c0,0,0.1-0.1,0.1-0.1c-1.8,1.8-3.4,3.7-5.3,5.3c-5.3,4.3-11.4,4.4-15.6,0.3c-0.7,0-1.4-0.1-2.1-0.1
		C334.3,453.6,334.7,452.3,335,451z"/>
	<path class="st10" d="M391.8,352.9c-0.3-0.6-1.1-1.4-0.9-1.9c4-13.6,11-25.5,22.8-33.5c4.4-3,10.3-4.8,15.6-5.3
		c9.4-0.9,13.8,4.1,13.6,13.9c-4.9-9.5-10.5-11.8-20.8-8.1c-11.8,4.2-19.2,13.2-25.1,23.7C395,345.2,393.6,349.1,391.8,352.9z"/>
	<path class="st4" d="M199.4,457.2c1.9-7.1,3.7-14.2,5.6-21.2c0-1.6,0-3.1,0-5.5c-2.8,1.1-4.8,1.9-6.8,2.7c1.1-3,9.1-8.5,12.4-8.1
		c1.2,0.1,2.2,1.6,3.6,2.7c1.4-0.7,3.4-2.2,5.7-3c2.7-0.9,5.6-1.1,4.6,3.4c-0.9,1.1-1.8,2.1-2.7,3.2c-6.8-2.1-10.1-0.5-11.2,5.6
		c-1.9,6.3-3.8,12.6-5.7,18.9C203.1,456.3,201.2,456.8,199.4,457.2z"/>
	<path class="st10" d="M243.4,385c0.9,0.7,1.9,1.2,2.6,2c3.5,3.9,7.7,5.7,12.8,4.2c13.6-3.9,25.3-10.4,31.2-24.2c0.6,0,1.3,0,1.9,0
		c-4.4,16.3-16.7,24.2-31.5,28.9C251.3,398.7,245.5,394.5,243.4,385z"/>
	<path class="st5" d="M263.5,433.2c3.8-2.7,7.5-5.9,11.6-8.1c2.1-1.1,3.2,0.9,1.9,3.2c-1.7,6.3-3.4,12.6-5,19
		c-0.2,0.8,0.6,1.8,0.9,2.6c2.1,3.7,3.6-0.6,5.4-0.5c1.2,0.1,3.1-3.7,3.5,0.6c-1.7,1-3.3,2.2-5.1,3c-3.8,1.8-7.7,3.3-11.6,5
		c1-5.7,2-11.5,3-17.2c0.3-1.6,0.5-3.2,0.8-4.8c0.4-1.5,0.7-3,1.2-5.1C267.2,432,265.3,432.6,263.5,433.2z"/>
	<path class="st8" d="M554.5,384c2.6,2.3,4.9,5.4,7.9,6.9c6,2.9,11.8,0,16.9-2.9c5.1-3,9.7-6.9,14.5-10.4c0.9-0.6,2-1,3-1.5
		c-0.4,1.5-0.4,3.5-1.4,4.5c-6.6,6.6-13.8,12.5-22.9,15.3C562.1,399,555.9,394.9,554.5,384z"/>
	<path class="st8" d="M94,382c4.9,10.2,9.7,12.8,20,7.9c7.9-3.7,14.7-9.8,21.9-14.9c-0.9,2.5-1.1,5.9-2.9,7.2
		c-6.4,4.8-12.9,10.1-20.2,13.2C101.6,400.1,94.1,394.2,94,382z"/>
	<path class="st8" d="M128.8,458.6c13.7,7.6,26.8,3.7,34.3-10.2c0.3-0.5,0.9-0.9,1.3-1.4c0.5,13.2-17.3,23.5-28.7,20.1
		C131.6,465.8,127.7,464.1,128.8,458.6z"/>
	<path class="st10" d="M175.2,388.2c0.7,1.1,1.4,2.2,2.8,4.2c8.3-5.4,16.6-10.8,24.7-16.3c0.7-0.5,0.6-2.2,0.9-3.3
		c0,0,0.2-0.3,0.2-0.3c0.4,0.2,0.7,0.4,1.1,0.6c0.9,4.6-0.7,7.8-4.8,10.3c-7.5,4.5-14.7,9.3-23.3,14.8
		C176,394,175.6,391.1,175.2,388.2z"/>
	<path class="st10" d="M450.5,387.2c6.2,5.6,7.5,5.8,15.3,0.6c5.2-3.5,10.2-7.1,16.5-11.6c-0.6,2.8-0.9,4.4-1.2,6
		c-5.7,3.9-11.2,8.1-17.2,11.6C455,399.1,452.1,397.6,450.5,387.2z"/>
	<path class="st8" d="M211.2,389.2c4,3.7,7.7,1.7,11.3-0.5c6.2-3.8,12.4-7.8,18.5-11.6c0.5,3.1-0.6,5.2-3.5,6.9
		c-5.8,3.4-11.4,7.5-17.2,10.8C214,398.3,211.3,396.5,211.2,389.2z"/>
	<path class="st8" d="M565.9,373.9c-2-2.9-0.7-4.6,1.9-6.4c6.1-4,12.2-8.1,17.7-12.8c3.7-3.2,6.2-7.6,9.3-11.5
		c0.4,7.7-4.1,12.6-9.6,16.8C578.9,364.8,572.3,369.3,565.9,373.9z"/>
	<path class="st8" d="M106.2,373.2c-2.5-2.5-1-3.9,1.2-5.5c5.4-3.8,11.1-7.4,16-11.9c4-3.7,7-8.5,10.5-12.9c1.1,6.6-2.2,11.3-6.9,15
		C120.2,363.4,113.1,368.2,106.2,373.2z"/>
	<path class="st8" d="M231.8,456.6c5.8,4.1,13.5-0.3,18.7-7.1c4.3-5.5,7-12.2,10.5-18.4c-0.1,11.8-10.3,27-20.7,31.2
		C235.8,464,230.5,462.9,231.8,456.6z"/>
	<path class="st8" d="M480.8,391.5c3.9-1.5,8-2.6,11.6-4.6c5.7-3.2,10.9-7.2,16.4-10.8c0.6,2.9-0.3,5-2.9,6.6
		c-6.6,4.1-12.8,8.7-19.5,12.6C482.2,397.9,480.8,396.7,480.8,391.5z"/>
	<path class="st7" d="M227,310c0.2-0.9,0-2.3,0.5-2.8c2.8-2.2,5.7-4.3,9.3-6.8c1.5,3.4,2.9,6.5,4.2,9.5c-2.8,2.6-5.6,5.3-8.6,8.1
		C230.4,315.1,228.7,312.5,227,310z"/>
	<path class="st10" d="M321.9,353c1-10.9,11.1-15,20.8-8.6c1.6-3.4,3.2-6.8,4.9-10.2c-1.3,5.1-2.6,10.2-3.6,14.1
		c-4.7-0.6-9-2.1-12.8-1.4c-3.1,0.6-5.6,3.9-8.4,6C322.5,353,322.2,353,321.9,353z"/>
	<path class="st10" d="M55.2,329.3c-1.5-10.8,10-18.3,16.5-17.1c4.3,0.8,6.8,4.2,7.4,9.8c-0.3,0-0.6,0-0.9,0
		c-4.4-6-11.3-6.7-17.1-1.2C58.6,323.1,57.1,326.4,55.2,329.3z"/>
	<path class="st10" d="M45.1,340c2.6,7.9,9.2,12.1,15.1,17.2c4.7,4.1,9.5,8.3,8,15.6c-2.4-7.1-8.3-10.9-13.6-15.4
		C49.1,352.9,43.9,348.2,45.1,340z"/>
	<path class="st8" d="M172.2,453.2c2.6,5,6.2,6.4,11.5,3.9c4.1-2,7.9-4.5,11.9-6.9c-0.5,6.8-13.4,15.1-19.6,12.3
		C171.9,460.7,171.7,457,172.2,453.2z"/>
	<path class="st9" d="M284.9,455c3.6,4,7.8,3.6,12,1.5c3.9-2,7.7-4.2,11.6-6.2c-1.1,2.2-1.7,5-3.5,6.4c-2.9,2.3-6.5,4.1-10,5.5
		C288.5,464.7,285.1,462.3,284.9,455z"/>
	<path class="st8" d="M465.5,455.3c4.2,3.8,8.7,3.3,13.3,0.8c3.5-1.9,6.9-4,10.3-6.1c0.8,3.2-0.4,5.4-3.3,6.9
		c-3.2,1.7-6.3,3.7-9.7,5C469.2,464.7,466.3,462.7,465.5,455.3z"/>
	<path class="st9" d="M335,451c-0.4,1.3-0.7,2.6-1.1,3.9c-3.5,2.4-6.7,5.4-10.6,7.1c-7.2,3.2-11.4,0-11.3-7.9
		c4.4,5.5,10.8,5.2,18-0.7C331.5,452.3,333.4,451.8,335,451z"/>
	<path class="st8" d="M161,360.1c-0.2-4.3,1.3-7.5,5.5-9.5c4.4-2.2,8.5-5.2,12.8-7.6c1.1-0.6,2.7-0.3,4.1-0.4
		c-0.2,1.5-0.3,3-0.5,4.5C175.7,351.4,168.3,355.7,161,360.1z"/>
	<path class="st9" d="M531.9,353c-0.1-5.2,2.4-8.6,7.2-10.5c4.6-1.9,8.9-2.4,12.7,1.6c0.5,0.5,1.5,0.6,2.2,0.9
		c-0.1,1.5-0.2,3.1-0.3,4.9c-8.7-5.6-16.6-4.3-20.8,3.1C532.5,353,532.2,353,531.9,353z"/>
	<path class="st11" d="M400.8,456.5c5.1,0.2,10.2,0.4,15.2,0.4c0.7,0,1.5-1,2.2-1.5c0.5,1.3,1.9,3,1.4,3.7c-0.9,1.3-2.6,2.7-4.1,2.8
		c-5.6,0.3-11.2,0.1-16.9,0.1c-0.4-0.4-0.8-0.8-1.2-1.2C398.6,459.4,399.7,457.9,400.8,456.5z"/>
	<path class="st9" d="M336.1,455c4.2,4.1,10.3,4,15.6-0.3c1.9-1.6,3.6-3.5,5.3-5.3c-0.3,2,0,4.7-1.1,5.7c-3.3,2.9-6.9,5.8-10.9,7.3
		C339,464.7,335.7,461.6,336.1,455z"/>
	<path class="st7" d="M360.8,463.6c3.5-5.2,7-10.3,7.6-16.9c0.1-1.4,3.6-2.6,5.5-3.9c0.6,0.3,1.1,0.7,1.7,1
		c-0.9,2.7-1.7,5.5-2.6,8.2c-1.2,1.8-2,3.9-3.6,5.2C366.7,459.7,363.7,461.5,360.8,463.6z"/>
	<path class="st12" d="M150.8,425.8c-1.1-5.5,1.8-10.1,6.9-11.2c3.4-0.7,5.1,0.8,6.7,5.6c1.8-0.7,3.6-1.4,5.4-2.1
		c-0.1,4.6-0.1,4.6-4.4,6.6c-2.3-2-4.1-4.8-6.2-5.1C155.2,419.1,152.4,422,150.8,425.8z"/>
	<path class="st10" d="M265.2,458.1c3.9-1.6,7.8-3.2,11.6-5c1.8-0.8,3.4-2,5.1-3c0.7,3.1-0.1,5.3-3.2,6.9c-2.5,1.2-4.7,3.1-7.1,4.5
		C266.9,464.1,265.9,463.6,265.2,458.1z"/>
	<path class="st10" d="M447.2,457.1c2.4-0.6,4.8-1,7-2c3.2-1.4,6.2-3.3,9.3-4.9c-0.9,1.8-1.3,4.2-2.7,5.3c-3.8,2.9-7.9,5.3-13.1,8.6
		C447.5,461.1,447.3,459.1,447.2,457.1z"/>
	<path class="st10" d="M319.1,450.1c-2.6-3-0.4-4.5,1.8-6.3c4.5-3.8,8.7-7.8,13-11.7c1.1,4.4-0.7,7.7-4.1,10.2
		C326.2,444.9,322.6,447.5,319.1,450.1z"/>
	<path class="st12" d="M179.1,450.1c-2.4-2.8-0.4-4.3,1.6-6c4.5-3.6,8.9-7.4,13.3-11.1c0.9,4.1-1.3,7-4.2,9.3
		C186.3,445,182.7,447.5,179.1,450.1z"/>
	<path class="st12" d="M292.9,441.9c-1.1-3.5,1.2-11.4,4.3-12.2c1.8-0.5,4.2,1.1,6.1,2.9c1.4-0.1,2.8-0.3,4.2-0.4
		c-0.9,2.1-1.9,4.2-2.8,6.3c-2.7-2.1-4.3-3.4-6-4.7C296.8,436.5,294.9,439.2,292.9,441.9z"/>
	<path class="st10" d="M360.8,463.6c2.9-2.1,5.9-4,8.6-6.3c1.5-1.4,2.4-3.5,3.6-5.2c0.2,5.8-5.2,14.9-10.4,17
		c-0.7,0.3-1.7-0.2-2.6-0.3C360.2,467.1,360.5,465.4,360.8,463.6z"/>
	<path class="st10" d="M473.9,440.9c-1.5-2.7,0.9-10,4.2-11.1c1.7-0.6,4.1,1,6.1,1.6c-0.1,0.5-0.2,1-0.3,1.5c1.4-0.3,2.8-0.7,4.2-1
		c0.7,3.4-0.8,5.3-3.7,6c-1.6-1.5-3-2.8-4.5-4.1C477.9,436.2,475.9,438.5,473.9,440.9z"/>
	<path class="st12" d="M227,310c1.7,2.5,3.4,5.1,5.4,8c3-2.9,5.8-5.5,8.6-8.1c1.8,2.7,1.1,4.9-1.3,6.8c-2.3,1.9-4.6,3.8-7.4,6.1
		C229.4,318.8,226.3,315.3,227,310z"/>
	<path class="st12" d="M210.6,437c1.1-6.1,4.5-7.7,11.2-5.6c0.9-1.1,1.8-2.1,2.7-3.2c-0.6,2.8-1.2,5.7-1.5,7.1
		c-4.3,0.7-7.6,1.2-10.8,1.7C211.7,437.1,211.2,437,210.6,437z"/>
	<path class="st10" d="M512.3,390.2c3.6-1.7,7.2-3.4,10.8-5.1c0.4,0,0.8,0,1.2,0c-1.2,7.8-2.2,8.6-13.5,10.7
		C511.3,393.7,511.8,391.9,512.3,390.2z"/>
	<path class="st10" d="M350.6,434.8c-0.2-1.4-1.1-3.5-0.5-4c1.2-1.2,3.2-2,4.9-2.1c1.2-0.1,2.5,1.3,4.4,2.4c0.9-1.2,1.8-2.4,2.7-3.6
		c2.3,3.8-0.1,6.1-2.9,7C356.3,434.6,353.5,434.7,350.6,434.8z"/>
	<path class="st10" d="M145.2,430.2c2.4,2.6,4.8,5.3,7.2,7.9c2.7,3,7.3,5.3,4.8,10.7c-2.4-2.5-4.6-5.1-7.2-7.4
		C146.6,438.3,144.1,435.1,145.2,430.2z"/>
	<path class="st11" d="M510.4,345.2c2.6-1,5.1-2.2,7.8-2.9c1.3-0.3,2.8,0.2,4.2,0.4c-0.2,1.5-0.3,2.9-0.5,4.4
		c-3.9,1-7.8,1.9-11.9,2.9C510.1,348.7,510.2,346.9,510.4,345.2z"/>
	<path class="st9" d="M300.4,345.2c2.6-1,5.1-2.2,7.7-2.9c1.2-0.3,3.4-0.1,4,0.7c0.6,0.9,0,2.7-0.1,4.2c-3.9,0.9-7.7,1.9-11.9,2.9
		C300.1,348.7,300.3,346.9,300.4,345.2z"/>
	<path class="st13" d="M414,455c-0.5-0.6-1.6-1.4-1.5-1.9c2.5-10.4,5.1-20.8,7.8-31.1c0.1-0.4,1-0.7,1.6-1
		c-2.4,10-4.8,20.1-7.2,30.1C414.4,452.4,414.2,453.7,414,455z"/>
	<path class="st10" d="M302.2,390.1c3.6-1.1,7.2-2.2,10.8-3.4c0.1,0.6,0.2,1.1,0.3,1.7c-1.3,1.6-2.3,3.6-3.9,4.6
		c-2.3,1.4-5,2-8.7,3.4C301.3,393.6,301.7,391.9,302.2,390.1z"/>
	<path class="st13" d="M313.2,388.4c-0.1-0.6-0.2-1.1-0.3-1.7c3-11.2,6-22.5,9-33.7c0.3,0,0.6,0,0.9,0
		C319.6,364.8,316.4,376.6,313.2,388.4z"/>
	<path class="st8" d="M142.3,345.2c2.3-0.8,4.6-1.6,6.9-2.4c4.9-1.7,5.7-0.9,4.8,4.3c-3.8,0.9-7.6,1.8-12,2.9
		C142.1,348.5,142.2,346.8,142.3,345.2z"/>
	<path class="st13" d="M524.3,385c-0.4,0-0.8,0-1.2,0c3-10.7,5.9-21.3,8.9-32c0.3,0,0.6,0,1,0C530,363.7,527.1,374.4,524.3,385z"/>
	<path class="st9" d="M208.1,347.1c2.2-1.1,4.3-2.4,6.6-3.3c1.4-0.6,3-0.6,4.5-0.8c0,1.7-0.1,3.3-0.1,5c-3.6,1.2-7.2,2.4-11.2,3.8
		C208,350.2,208,348.7,208.1,347.1z"/>
	<path class="st10" d="M439,442.1c0.9-5.7,5.2-9.4,13-10.9c-0.4,1.7-0.7,3.2-1,4.7C447,437.9,443,440,439,442.1z"/>
	<path class="st13" d="M187.9,371.9c-0.3-1.2-1-2.5-0.8-3.6c2.4-9.2,4.9-18.3,7.5-27.5c0.2-0.7,0.9-1.3,1.4-1.9
		c-1.8,7.7-3.6,15.3-5.5,22.9C189.8,365.3,188.8,368.6,187.9,371.9z"/>
	<path class="st10" d="M227.5,440.2c0.7-0.7,1.6-1.3,2-2.1c3.2-6.3,3.1-6.3,11.6-5.9c-1.6,1.9-2.8,3.4-4,4.9c-6-1.4-6.2,3.9-8.7,8.4
		C227.9,443,227.7,441.6,227.5,440.2z"/>
	<path class="st9" d="M143.1,391c3.6-2.1,8.9-1.1,11.1-6c0.4,0,0.8,0,1.2,0c0.4,8.4-6.5,8.7-12.3,11.1
		C143.1,394.2,143.1,392.6,143.1,391z"/>
	<path class="st5" d="M494.1,453.1c1.7-2,3.4-4.1,5.8-7.1c1.6,3.3,2.8,5.7,3.9,8.1C500.3,456.2,496.8,458.7,494.1,453.1z"/>
	<path class="st10" d="M442.9,326c1.3,0,2.7,0.3,3.7-0.2c2.8-1.4,5.5-3.1,8.2-4.7c-1.5,2.3-2.9,4.8-4.7,6.8
		c-1.6,1.8-3.7,3.1-6.1,5.1C443.6,330.4,443.3,328.2,442.9,326z"/>
	<path class="st12" d="M78.1,322c0.3,0,0.6,0,0.9,0c1,0.2,2.2,0.8,3,0.4c2.6-1.3,5-2.9,7.4-4.4c0.7,6.9-5.9,7.2-9.5,11.4
		C79.2,326.3,78.6,324.1,78.1,322z"/>
	<path class="st12" d="M238,447.1c0.1-7.7,3.4-13.7,9.8-18c-0.3,1.5-0.3,3.3-1.1,4.6C244,438.2,240.9,442.6,238,447.1z"/>
	<path class="st12" d="M494.1,453.1c2.7,5.6,6.2,3.1,9.7,1c0.9,4.6-2.6,6.2-6.9,9.3C495.9,459.5,495,456.3,494.1,453.1z"/>
	<path class="st13" d="M224,371.2c2.3-9.4,4.7-18.8,7-28.2C228.7,352.4,226.4,361.8,224,371.2z"/>
	<path class="st10" d="M423,419c-2.9-2-1-3.5,0.6-4.9c0.8-0.7,1.7-1.2,2.5-1.7c1.1-0.1,2.2-0.2,3.3-0.3
		C430.3,417.7,429.8,418.2,423,419z"/>
	<path class="st12" d="M344.2,439.2c2.4,2.2,4.9,4.4,7.2,6.7c1.3,1.4,3.3,3.2-0.5,4.2C347.1,447.4,342.7,445.1,344.2,439.2z"/>
	<path class="st10" d="M282,414c1.1,4.3-1.7,6.3-6.1,8.8c-0.6-3.6-1.2-6.6-1.7-9.6c0.9,1.3,1.9,2.5,2.8,3.7
		C278.9,415.8,280.5,414.9,282,414z"/>
	<path class="st6" d="M282,414c-1.6,0.9-3.1,1.9-5,3c-0.9-1.2-1.9-2.5-2.8-3.7c1.4-1.8,2.9-3.6,5.1-6.3C280.5,410,281.3,412,282,414
		z"/>
	<path class="st13" d="M155.3,385c-0.4,0-0.8,0-1.2,0c2-7,4-14.1,6-21.1C158.5,371,156.9,378,155.3,385z"/>
	<path class="st13" d="M453.9,451c0-2-0.4-4.1,0.1-6c1.4-5.7,3.2-11.3,4.9-16.9c-1.2,5.9-2.5,11.8-3.7,17.6
		C454.8,447.5,454.3,449.2,453.9,451z"/>
	<path class="st13" d="M272.9,449.9c-0.3-0.9-1.1-1.9-0.9-2.6c1.6-6.3,3.3-12.7,5-19C275.7,435.5,274.3,442.7,272.9,449.9z"/>
	<path class="st13" d="M210.6,437c0.5,0,1,0.1,1.5,0.1c-1.9,6.3-3.9,12.7-5.8,19c-0.5-0.1-1-0.1-1.5-0.2
		C206.8,449.6,208.7,443.3,210.6,437z"/>
	<path class="st13" d="M495,366c1.6-6.6,3.2-13.3,4.9-19.9C498.2,352.7,496.6,359.3,495,366z"/>
	<path class="st8" d="M204.9,455.9c0.5,0.1,1,0.1,1.5,0.2c0,4.7-3.3,5.8-7.4,6.5c0.2-1.9,0.3-3.6,0.4-5.4
		C201.2,456.8,203.1,456.3,204.9,455.9z"/>
	<path class="st8" d="M429.5,457.2c2.2-0.5,4.4-0.9,6.6-1.4c0.6,4.8-2.7,5.8-7,6.7C429.3,460.6,429.4,458.9,429.5,457.2z"/>
	<path class="st8" d="M263.5,433.2c1.9-0.6,3.7-1.2,6.7-2.2c-0.5,2.1-0.9,3.6-1.2,5.1c-1.6,0.7-3.2,1.4-5.4,2.4
		C263.5,436.3,263.5,434.8,263.5,433.2z"/>
	<path class="st11" d="M429.3,432.2c1.6-0.4,3.2-0.7,5.7-1.3c0,1.8,0,3.3,0,4.8c-2.1,0.5-4.1,1-7.4,1.7
		C428.3,435.1,428.8,433.7,429.3,432.2z"/>
	<path class="st11" d="M409,414c2.2,0,4.4,0,7.7,0c-1.2,2.3-1.9,3.6-2.6,4.9c-1.6,0-3.1,0-5.1,0C409,417.1,409,415.5,409,414z"/>
	<path class="st11" d="M198.2,433.1c2-0.8,3.9-1.5,6.8-2.7c0,2.4,0,3.9,0,5.5c-1.9,0.5-3.9,0.9-5.8,1.4c-0.3-0.2-0.7-0.3-1-0.5
		C198.2,435.6,198.2,434.4,198.2,433.1z"/>
	<path class="st13" d="M291.9,367c-0.6,0-1.3,0-1.9,0c1.7-4.6,3.5-9.2,5.2-13.8C294.1,357.8,293,362.4,291.9,367z"/>
	<path class="st13" d="M196,339.1c0.3-2,0.5-3.9,0.8-5.9C196.5,335.1,196.3,337.1,196,339.1z"/>
	<path class="st12" d="M237.8,449.8c0.1-1,0.2-1.9,0.2-2.9C238,447.9,237.9,448.9,237.8,449.8z"/>
	<path class="st10" d="M243.2,380.2c0,0.9-0.1,1.7-0.1,2.6C243.2,382,243.2,381.1,243.2,380.2z"/>
	<path class="st5" d="M204.8,373.1c-0.4-0.2-0.7-0.4-1.1-0.6c0.3-0.3,0.5-0.6,0.8-0.8C204.6,372.1,204.7,372.6,204.8,373.1z"/>
	<path class="st13" d="M160,364.1c0.3-0.3,0.5-0.6,0.8-0.9C160.5,363.5,160.3,363.8,160,364.1z"/>
	<path class="st8" d="M79.8,369.9c-0.1-0.2-0.2-0.3-0.3-0.5c0,0,0.2-0.1,0.3-0.2C79.9,369.4,79.9,369.6,79.8,369.9z"/>
	<path class="st4" d="M198.2,436.9c0.3,0.2,0.7,0.3,1,0.5C198.9,437.2,198.5,437.1,198.2,436.9z"/>
	<path class="st13" d="M231,342.2c0.3-0.3,0.5-0.7,0.8-1C231.5,341.5,231.3,341.8,231,342.2z"/>
	<path class="st9" d="M357,449.6c0.3-0.5,0.5-0.9,0.8-1.4C357.5,448.6,357.3,449.1,357,449.6z"/>
	<path class="st14" d="M270.2,599.7c-7.3,2.2-13.6,0.6-19.8,1.2c-0.2-0.4-0.4-0.8-0.6-1.2c0.7-0.6,1.4-1.7,2.3-1.9
		c4.7-1,6-4.1,6-8.4c-0.1-10.2-0.2-20.3,0.1-30.5c0.1-4.5-1.2-6.7-5.9-6c-0.7,0.1-1.4-0.4-2.5-0.7c0.6-0.9,0.8-1.7,1.2-1.8
		c0.7-0.3,1.6-0.3,2.4-0.3c13.4-0.7,13.4-0.7,18.2,11.8c3.3,8.7,6.6,17.3,10.4,27.3c3.3-9.3,6.1-17.4,9-25.4
		c0.4-1.3,0.8-2.6,1.3-3.8c1.4-3.3,2.2-8.7,4.4-9.4c4.7-1.5,10.2-0.5,15.3-0.4c0.4,0,0.8,1.1,1.3,1.8c-8.2,2.2-8.2,2.2-8.2,11
		c0,9.3,0.2,18.7-0.1,28c-0.1,4.7,0.9,7.6,6.3,6.9c0.5-0.1,1.1,0.3,1.8,0.6c-2.3,3-20.1,3.2-23,0.5c0.2-0.3,0.3-0.7,0.5-0.8
		c7.3-1.1,7.3-1.1,7.3-8.6c0-11.2,0-22.3-0.9-33.8c-5.3,15-10.6,30-15.9,45.1c-0.7,0.1-1.3,0.1-2,0.2c-5.8-15.1-11.5-30.2-17.3-45.3
		c-0.2,0.1-0.5,0.1-0.7,0.2c0,11.4-0.1,22.9,0,34.3C261.1,594.6,261.5,594.8,270.2,599.7z"/>
	<path class="st15" d="M464.6,570.5c-0.4,1.2-0.7,1.5-0.6,1.7c3.6,11.2-0.9,17.3-12.9,17.6c-1.3,0-2.8-0.3-4,0.1
		c-1.4,0.5-2.5,1.6-3.8,2.5c1.3,1,2.5,2.6,4,2.7c2.9,0.4,6-0.1,9,0c7.8,0.1,11.7,2.5,12.2,7.5c0.5,5.4-4.2,10.3-11.2,11.2
		c-3.4,0.4-7,0.4-10.4,0c-3.9-0.4-8.2-1.9-8.5-6.3c-0.1-2.5,2.8-5.1,4.4-7.8c-5.6-4-5.5-6.9,1.1-12.3c-4.9-5.4-5.8-9.7-3-14.2
		c3.1-4.9,10.4-7.2,17-4.7c2.6,1,4.4,1.1,6.7-0.6c1.2-0.8,3.3-1.1,4.6-0.6c1.1,0.3,2.1,2,2.4,3.3c0.2,0.8-0.9,2.5-1.6,2.7
		c-1,0.2-2.2-0.6-3.3-1.2C466.1,571.9,465.6,571.3,464.6,570.5z M445.9,578.7c0,5.4,2.6,8.6,6.9,8.5c4.1-0.1,6.9-3.7,6.8-8.7
		c-0.1-4.7-3.1-8.3-6.9-8.4C448.6,570,445.8,573.5,445.9,578.7z M453.7,600.7c-1.6,0.3-4.4,0.3-6.7,1.4c-1.7,0.8-3.6,3-3.6,4.6
		c0,1.5,2.3,3.6,4,4.2c2.4,0.9,5.2,1,7.8,0.8c5.5-0.4,9.4-3.3,8.7-6.3C462.8,600.3,458.4,601.2,453.7,600.7z"/>
	<path class="st16" d="M117.4,570.8c-1.5-3.8-2.4-6.5-3.7-9.2c-3.1-6.6-8.3-10.1-13.9-9.5c-5.8,0.6-10.9,5.2-11.7,12.5
		c-0.8,7.3-1,15,0.1,22.2c1.1,7.7,6.6,11.8,13.3,12c7.2,0.3,12.6-3.8,15.2-11.3c0.5-1.6,1.1-3.1,1.9-5.7c2.6,7.6-2.9,16.5-10.6,19.1
		c-11.8,4.1-24.8-2.8-28.7-15.5c-3.2-10.3-1.2-19.8,5.2-28.3c7-9.2,16.9-10.3,28.9-3.7c1-1.5,2-2.9,3.1-4.5
		C119.1,552.4,119.8,565.5,117.4,570.8z"/>
	<path class="st17" d="M366.5,567.7c0.4,2.4,0.6,3.9,0.9,5.6c2.2-1.5,4.2-3.2,6.4-4.2c8.1-3.6,15,0.8,15.2,9.6c0.1,3.8,0,7.7,0,11.5
		c0,6.6,0,6.6,5.7,8.8c-2.2,2.6-13.4,2.8-17.4-0.2c7.4-0.4,5.8-5.5,5.9-9.7c0.1-2.8,0-5.7,0-8.5c0-4-1.1-7.3-5.5-8.3
		c-3.6-0.8-8.5,1.9-9.1,6c-0.9,5.7-0.8,11.6-0.5,17.4c0.1,1.3,3,2.4,4.6,3.6c-1.4,2.4-13.2,2.8-17-0.4c6.5-0.5,6.1-4.8,5.9-9.1
		c-0.2-3.8-0.2-7.7,0-11.5c0.3-4.2-0.5-7.3-5.8-7.5c0.1-0.6,0.1-1.1,0.2-1.7C359.2,568.6,362.6,568.2,366.5,567.7z"/>
	<path class="st18" d="M434,596.6c-4.4,6.8-8.2,6.5-13.3,0.3c-4.1,3.5-8.8,6.4-14.3,4.4c-2.6-0.9-6.1-3.4-6.5-5.6
		c-0.5-2.6,1.2-6.8,3.4-8.4c3.5-2.6,8.1-3.7,12.2-5.2c1.5-0.6,3.2-0.7,4.9-1c0.6-3.9,0.7-7.5-3-9.4c-3.4-1.8-7-1.6-10.3,1.3
		c0.3,0.9,0.8,1.6,0.8,2.4c-0.1,1.6,0.1,3.7-0.8,4.7c-0.7,0.8-3.7,0.8-4.3,0c-1.1-1.3-1.8-3.6-1.4-5.2c0.4-1.7,2-3.5,3.6-4.5
		c5.1-3.4,10.8-3.3,16.3-1.5c3.9,1.3,5.5,4.6,5.5,8.6c0,4.5,0,9,0,13.5C426.9,594.8,425.7,599.8,434,596.6z M420.1,583.4
		c-3.8,1.4-7.7,2.3-11,4.2c-3.2,1.8-4.2,5.3-2.2,8.7c2.1,3.6,5.3,2.8,8.3,1.3C419.7,595.3,421.4,590.7,420.1,583.4z"/>
	<path class="st17" d="M148.3,596.7c-4.4,4.1-9.2,6.5-14.8,4.4c-2.5-0.9-5.7-3.3-6.1-5.5c-0.5-2.5,1-6.7,3-8.1
		c3.8-2.6,8.7-3.7,13.1-5.6c1.7-0.7,3.9-1.9,4.3-3.3c0.9-3.1-0.1-6.1-3.5-7.3c-1.8-0.6-3.9-0.6-5.9-0.4c-2.5,0.3-4.5,1.2-3,4.7
		c0.5,1.2,0.2,3.4-0.6,4.4c-0.6,0.8-3.2,1-3.9,0.4c-1.2-1-1.8-2.9-2.1-4.5c-0.2-1,0.5-2.3,1.1-3.2c3.9-5.6,17-7,21.7-2
		c1.4,1.5,2.2,4.1,2.3,6.2c0.3,5.1,0,10.3,0.1,15.5c0.1,2.8,0,6,4.5,5c0.5-0.1,1.7,0.6,1.8,1.1c0.1,0.6-0.5,1.5-1,1.9
		C156.1,603.2,152.4,602,148.3,596.7z M147.6,583.3c-4.1,1.6-8,2.7-11.2,4.7c-3.1,1.9-3.3,5.4-1.7,8.4c1.8,3.3,4.8,2.9,7.8,1.6
		C147.1,595.7,148.7,591.7,147.6,583.3z"/>
	<path class="st16" d="M325.9,571.7c0.3,1.8,0.4,2.2,0.3,2.5c-0.2,2.1-0.3,4.2-0.5,6.2c-1.6-0.3-4.6-0.3-4.7-1
		c-0.5-2.2-0.8-5.1,0.3-6.8c3.6-5.6,16.6-6.9,21.3-2.2c1.5,1.5,2.3,4,2.5,6.2c0.4,5.1,0,10.3,0.2,15.5c0.1,2.8-0.4,6.7,4.7,5.3
		c0.4-0.1,1.7,0.8,1.7,1.3c0,0.6-0.7,1.4-1.3,1.9c-3.5,2.6-6.8,1.5-11-3.6c-4.3,3.7-9.2,6.5-14.9,4.2c-2.4-1-5.5-3.4-6-5.6
		c-0.5-2.3,0.9-6.4,2.9-7.7c3.9-2.6,8.6-4,13.1-5.7c2.2-0.8,5.2-0.1,5-4c-0.2-3.8-1.4-6.8-5.4-7.2
		C331.4,570.6,328.7,571.4,325.9,571.7z M339.1,583.2c-4.2,1.6-8,2.5-11.4,4.4c-3.3,1.9-3.9,5.5-2.1,8.7c1.9,3.5,5.2,2.9,8.3,1.4
		C338.2,595.4,340,591.2,339.1,583.2z"/>
	<path class="st18" d="M504.3,585.1c-7.6,0-14.9,0-22.3,0c0,5.3,0.6,10,5.6,12.2c7,3.1,11.5-1.2,15.3-6.6c0.4,0.2,0.7,0.5,1.1,0.7
		c-0.2,1-0.1,2.2-0.6,3.1c-3.4,5.8-10.5,8.6-17.3,6.7c-8.5-2.4-13-11.5-10.5-21.3c2.2-9,9.6-13.7,18.4-11.7
		C500.4,569.5,504.4,575.8,504.3,585.1z M481.4,582.1c5.1,0,9.2,0.3,13.3-0.2c1.2-0.1,3-2.2,3-3.4c0.1-4-1.9-7.1-5.9-8.3
		c-4-1.2-6.8,1-8.5,4.4C482.4,576.7,482.2,579,481.4,582.1z"/>
	<path class="st19" d="M171.2,599.3c-0.8,0.6-2,1.4-4.1,3c-0.4-5.1-0.7-9.3-1-13.5c0.5-0.2,1.1-0.5,1.6-0.7c1,1.6,2.1,3.1,3.1,4.7
		c3,5.1,8.4,7.5,12.9,5.2c1.7-0.8,3.6-3,3.6-4.6c0-1.5-2.1-3.6-3.8-4.4c-2.3-1.1-5.1-1.3-7.7-1.9c-7.3-1.8-10.3-5.9-8.7-11.9
		c1.5-5.8,8-8.7,14.6-6.8c2,0.6,4.2,0.6,7.5,0.9c0.2,2.6,0.6,6.3,0.9,10.1c-0.5,0.2-1,0.4-1.4,0.6c-0.9-1.3-1.9-2.6-2.7-4
		c-2.4-4.4-6.2-6.1-10.9-4.9c-1.7,0.4-3.9,2.6-4.1,4.2c-0.2,1.4,1.6,3.9,3.2,4.7c2.5,1.2,5.4,1.5,8.2,2c7.1,1.4,10.5,5.3,9.6,11
		c-0.9,5.5-7,9.7-13.2,8.7C176.3,601.3,174,600.2,171.2,599.3z"/>
	<path class="st17" d="M226.8,585.1c-7.7,0-14.9,0-23.5,0c1.6,4,2.4,7.6,4.3,10.4c2.5,3.4,6.8,3.8,10.4,2c3-1.5,5.4-4.2,8.4-6.7
		c-0.7,6.6-7.6,11.6-14.5,11.1c-8.8-0.7-15.1-8.4-14.5-17.7c0.7-10.6,7-16.8,16.7-16.3C222,568.2,227.1,574.9,226.8,585.1z
		 M203.6,582.2c4.2,0,7.5,0.2,10.8-0.1c1.8-0.1,5-0.6,5.2-1.4c0.4-2.3,0.2-5.1-0.9-7c-2.9-5-9.1-5-12.1,0.1
		C205.2,576,204.7,578.8,203.6,582.2z"/>
	<path class="st19" d="M509.1,598.8c6-1.9,6-1.9,6-8.7c0-3.2,0-6.3,0-9.5c0-7.8,0-7.8-6.1-10.5c0-0.5-0.1-1-0.1-1.5
		c3.6-0.2,7.3-0.4,11.4-0.7c0.2,3,0.4,5.7,0.6,8.8c2-2.6,3.2-5.4,5.4-6.8c2-1.3,5.1-1.7,7.3-1.1c1.4,0.3,3.2,3.2,3.1,4.9
		c-0.1,1.7-2.3,3.3-3.5,4.9c-1.1-1.5-2.3-3-3.3-4.5c-0.3-0.5,0-1.3-1-2.6c-1.4,1.6-3.6,3-4.1,4.9c-1.6,5.7-2.9,11.5-3.5,17.4
		c-0.6,5.5,4.6,3.7,7.6,4.7C527.2,601.8,511.4,602,509.1,598.8z"/>
	<path class="st20" d="M489,344c-1.8,8-3.6,16.1-5.6,24.1c-0.4,1.6-1.9,3-3.2,4.1c-2.3,1.9-4.6,3.9-7.3,5.2c-2.8,1.4-6,2-9,2.9
		c-0.6-3.3-1.8-6.6-1.5-9.8c0.4-4.9,1.8-9.6,2.8-14.4c1-1.5,2.1-2.9,2.9-4.5c4.1-8.4,6.8-9.8,16.1-8.6
		C485.7,343.2,487.4,343.7,489,344z"/>
	<path class="st12" d="M489,344c-1.6-0.3-3.2-0.8-4.9-1c-9.3-1.2-12,0.3-16.1,8.6c-0.8,1.6-1.9,3-2.9,4.5
		c-0.3-14.3,9.9-21,25.7-16.4C490.2,341.2,489.6,342.6,489,344z"/>
	<path class="st20" d="M284,350.5c0.1,9.8-3.1,18.5-8.4,26.6c-1.1,1.6-2.4,3.3-3.9,4.5c-3,2.4-6.3,4.2-10.5,2.6
		c-4.6-1.8-6.2-5.7-6.1-9.9c0.1-5.1,1.3-10.1,1.9-15.1c0.9-1.3,1.8-2.6,2.8-3.9c3.2-3.8,5.9-8.1,9.7-11c5.2-3.9,10.1-2.1,13,3.7
		C283.1,348.8,283.5,349.7,284,350.5z"/>
	<path class="st10" d="M284,350.5c-0.4-0.9-0.9-1.7-1.3-2.6c-2.9-5.8-7.9-7.6-13-3.7c-3.8,2.9-6.5,7.3-9.7,11
		c-1,1.2-1.9,2.6-2.8,3.9c-0.1-8,8.5-19.6,16-21.6c4.1-1.1,8.5,1.7,10,6.7C283.8,346.2,283.7,348.4,284,350.5z"/>
	<path class="st14" d="M123,344.5c-0.1,6.1-4.3,9.7-8.5,13.2c-2.3,2-5,3.5-8.7,6.2c1-4.1,1.7-6.9,2.4-9.6c1.9-3.1,3.5-6.4,5.8-9.2
		C116.5,341.7,119.7,340.5,123,344.5z"/>
	<path class="st9" d="M123,344.5c-3.3-4-6.5-2.7-9.1,0.6c-2.2,2.8-3.9,6.1-5.8,9.2c-1.1-5,5.4-16,10-17.1
		C120.7,336.6,124.3,339.3,123,344.5z"/>
	<path class="st21" d="M583.2,344.8c-0.8,6.6-7.4,14-16.3,17.7c0.4-2.6,0.8-5,1.2-7.4c2.4-3.6,4.4-7.5,7.2-10.8
		C577.7,341.4,580.9,340.6,583.2,344.8z"/>
	<path class="st12" d="M583.2,344.8c-2.3-4.2-5.5-3.4-7.9-0.5c-2.8,3.3-4.8,7.2-7.2,10.8c-0.1-6.3,2.8-11.4,7-15.5
		c1.4-1.4,4.3-1.2,6.5-1.7C582.2,340.2,582.7,342.5,583.2,344.8z"/>
	<path class="st9" d="M180,441c-1.4-4,1.5-11.2,5.1-12.4c0.6-0.2,2.1,0.2,2.1,0.4c0,1.4-0.2,2.8-0.4,4.2
		C181.7,433.3,181.4,437.7,180,441z"/>
	<path class="st19" d="M180,441c1.4-3.3,1.7-7.7,6.8-7.8C187,438,183.7,439.6,180,441z"/>
	<path class="st12" d="M319.9,441c-0.3,0-0.6,0-0.9,0c0,0,0.1,0,0.1,0c1.2-3.6,2.2-7.4,3.8-10.9c0.4-0.9,2.7-1,4.1-1.5
		c0,1.5-0.1,3.1-0.1,4.6C321.6,433.2,321.3,437.6,319.9,441z"/>
	<path class="st19" d="M319.9,441c1.4-3.4,1.7-7.8,6.9-7.8C326.7,437.8,323.5,439.6,319.9,441z"/>
	<path class="st12" d="M319,441c-0.1,0.4-0.2,0.9,0,0.2C318.5,441.7,318.8,441.4,319,441C319,441,319,441,319,441z"/>
	<path class="st22" d="M445.9,578.7c0-5.2,2.8-8.7,6.9-8.6c3.8,0.1,6.8,3.7,6.9,8.4c0.1,5-2.7,8.7-6.8,8.7
		C448.5,587.2,445.9,584.1,445.9,578.7z"/>
	<path class="st22" d="M453.7,600.7c4.7,0.5,9.2-0.4,10.2,4.8c0.6,3-3.3,5.8-8.7,6.3c-2.6,0.2-5.4,0.1-7.8-0.8
		c-1.7-0.6-3.9-2.7-4-4.2c0-1.6,1.9-3.8,3.6-4.6C449.3,601,452.1,601,453.7,600.7z"/>
	<path class="st22" d="M420.1,583.4c1.3,7.3-0.5,11.9-4.9,14.2c-3,1.5-6.2,2.3-8.3-1.3c-2-3.4-1-6.8,2.2-8.7
		C412.4,585.7,416.3,584.8,420.1,583.4z"/>
	<path class="st22" d="M147.6,583.3c1.1,8.4-0.4,12.4-5.2,14.6c-3,1.4-6,1.7-7.8-1.6c-1.6-3-1.4-6.5,1.7-8.4
		C139.6,586,143.4,584.9,147.6,583.3z"/>
	<path class="st23" d="M339.1,583.2c0.9,7.9-0.8,12.2-5.2,14.5c-3.1,1.6-6.4,2.1-8.3-1.4c-1.7-3.2-1.2-6.8,2.1-8.7
		C331.1,585.7,334.9,584.8,339.1,583.2z"/>
	<path class="st24" d="M481.4,582.1c0.8-3.1,1-5.5,2-7.4c1.7-3.4,4.5-5.6,8.5-4.4c3.9,1.1,5.9,4.3,5.9,8.3c0,1.2-1.9,3.3-3,3.4
		C490.7,582.4,486.5,582.1,481.4,582.1z"/>
	<path class="st24" d="M203.6,582.2c1.1-3.3,1.5-6.1,2.9-8.4c3-5,9.2-5.1,12.1-0.1c1.1,1.9,1.3,4.8,0.9,7c-0.1,0.8-3.3,1.3-5.2,1.4
		C211.1,582.3,207.8,582.2,203.6,582.2z"/>
</g>
</svg>
